<svg width="117" height="103" viewBox="0 0 117 103" fill="none" xmlns="http://www.w3.org/2000/svg">
<path d="M54.4684 3.7255C54.433 3.77283 54.4004 3.82221 54.3709 3.87338L2.56013 93.4947C2.55984 93.4952 2.55954 93.4957 2.55925 93.4962C1.83817 94.7357 1.45642 95.9149 1.52715 97.0181C1.60236 98.191 2.17617 99.0804 2.95373 99.6782C3.68546 100.241 4.56664 100.528 5.34723 100.674C6.12251 100.82 6.90638 100.846 7.57253 100.805L111.609 100.805C112.718 100.805 113.767 100.555 114.515 99.8294C115.295 99.0746 115.455 98.096 115.398 97.3005C115.293 95.8534 114.438 94.3462 113.789 93.4363L62.4732 3.87838C62.4429 3.82543 62.4093 3.77437 62.3728 3.7255C61.7045 2.83235 60.9465 2.19198 60.1013 1.83123C59.2431 1.46492 58.3902 1.42819 57.6202 1.59572C56.154 1.91474 55.0494 2.94909 54.4684 3.7255Z" fill="url(#paint0_linear_721_2617)" stroke="white" stroke-width="3" stroke-linejoin="round"/>
<path d="M31.851 82.7672L85.2183 82.7672C87.099 82.7672 86.3154 81.0302 85.6885 80.1617L59.3575 33.9746C58.229 32.4587 57.0065 33.343 56.5363 33.9746L29.9703 80.1617C28.6537 82.4356 30.6756 82.8461 31.851 82.7672Z" fill="url(#paint1_linear_721_2617)"/>
<path d="M58.4277 3.26258L57.9692 33.1376C57.0521 32.678 56.1351 34.5165 56.1351 34.5165L29.9994 80.0184C29.2657 81.1215 29.388 81.7037 29.5408 81.8569L3.40515 97.9434C2.67152 97.208 3.09947 95.7986 3.40515 95.1857L55.6766 5.10104C56.777 3.26258 57.9692 3.10937 58.4277 3.26258Z" fill="url(#paint2_linear_721_2617)"/>
<path d="M58.4276 3.26252L57.969 33.1375C58.7026 33.1375 59.1918 33.7504 59.3447 34.0568L85.9389 80.478C86.6725 81.5811 86.5502 82.1632 86.3974 82.3164L113.909 98.403C114.275 97.2999 113.45 95.7985 112.992 95.1857L61.1787 4.64137C60.0782 3.1706 58.8861 3.10932 58.4276 3.26252Z" fill="url(#paint3_linear_721_2617)"/>
<defs>
<linearGradient id="paint0_linear_721_2617" x1="14.5001" y1="90.4999" x2="98.0001" y2="91.4999" gradientUnits="userSpaceOnUse">
<stop stop-color="#6EE7E7"/>
<stop offset="1" stop-color="#8F00FF"/>
</linearGradient>
<linearGradient id="paint1_linear_721_2617" x1="57.969" y1="82.7761" x2="57.969" y2="33.1376" gradientUnits="userSpaceOnUse">
<stop stop-color="#9BFBFF"/>
<stop offset="1" stop-color="#B265FB"/>
</linearGradient>
<linearGradient id="paint2_linear_721_2617" x1="14.0001" y1="93" x2="58.0001" y2="14.4999" gradientUnits="userSpaceOnUse">
<stop stop-color="#385A5E"/>
<stop offset="1" stop-color="#421566"/>
</linearGradient>
<linearGradient id="paint3_linear_721_2617" x1="101.5" y1="89.9999" x2="58" y2="14.4999" gradientUnits="userSpaceOnUse">
<stop stop-color="#5F23A7"/>
<stop offset="1" stop-color="#448499"/>
</linearGradient>
</defs>
</svg>
