<svg width="93" height="152" viewBox="0 0 93 152" fill="none" xmlns="http://www.w3.org/2000/svg">
<path d="M42.7736 4.40968C42.7115 4.49148 42.6546 4.57702 42.6031 4.66582L3.37238 72.2921C2.74395 73.3262 2.41323 74.3917 2.5195 75.5606C2.59971 76.443 2.94478 77.2596 3.1473 77.7389C3.17034 77.7934 3.19153 77.8435 3.21028 77.8889C3.25139 77.9884 3.29889 78.0852 3.35249 78.1786L42.5972 146.576C42.6359 146.644 42.6779 146.71 42.7228 146.773C43.6576 148.099 45.1137 148.895 46.6834 148.895C48.2713 148.895 49.7545 148.074 50.6343 146.639C50.6457 146.621 50.6569 146.602 50.6678 146.583L89.5387 79.3064C89.5876 79.2219 89.6314 79.1346 89.6701 79.0449C90.3496 77.4677 90.4718 76.0646 90.3243 74.884C90.2007 73.8952 89.8739 73.0872 89.7505 72.7822C89.7345 72.7425 89.7219 72.7113 89.7136 72.6894C89.6662 72.5635 89.6087 72.4417 89.5417 72.3251L50.6708 4.67479C50.6097 4.56841 50.5408 4.46667 50.4648 4.37041C49.2546 2.83872 47.5784 2.34206 46.0727 2.54281C44.7399 2.72051 43.5065 3.44323 42.7736 4.40968Z" fill="url(#paint0_linear_721_2611)" stroke="white" stroke-width="5" stroke-linejoin="round"/>
<path d="M45.2329 37.7344L23.9954 74.2145C23.5251 74.9787 23.7273 75.3818 23.9954 76.0285L45.2329 112.912C45.774 113.676 46.7853 113.676 47.2556 112.912L68.2908 76.6331C68.8318 75.3818 68.4273 74.5756 68.2908 74.2146L47.2556 37.7344C46.583 36.8862 45.5717 37.2892 45.2329 37.7344Z" fill="url(#paint1_linear_721_2611)"/>
<path d="M88 75.3615H68.5645C68.5645 74.7635 68.3154 74.1157 68.1908 73.8665L47.2603 37.9857C46.9613 37.3877 46.6373 37.2382 46.5128 37.2382V5.09489C47.4098 4.79588 48.3816 5.71782 48.7553 6.21616L87.2525 73.4927C87.8505 74.6888 88 75.237 88 75.3615Z" fill="url(#paint2_linear_721_2611)"/>
<path d="M5.02551 75.3615H23.7135L45.0177 112.737C45.6157 113.634 46.2636 113.609 46.5127 113.485L46.8865 146.376C45.6905 146.376 44.8931 145.379 44.6439 144.881L6.14679 77.9778C5.54878 77.0808 5.1501 75.8599 5.02551 75.3615Z" fill="url(#paint3_linear_721_2611)"/>
<path d="M46.5127 37.2382V5.09491C45.6157 5.09491 44.8931 5.84243 44.6439 6.21619L5.77303 73.119C5.17502 74.315 5.02551 75.1124 5.02551 75.3616H23.7135C23.7135 74.7635 23.9626 74.3649 24.0872 74.2403L45.0177 37.9857C45.3167 37.0887 46.139 37.1136 46.5127 37.2382Z" fill="url(#paint4_linear_721_2611)"/>
<defs>
<linearGradient id="paint0_linear_721_2611" x1="80.1511" y1="75.3615" x2="46.44" y2="146.395" gradientUnits="userSpaceOnUse">
<stop stop-color="#421566"/>
<stop offset="1" stop-color="#385A5E"/>
</linearGradient>
<linearGradient id="paint1_linear_721_2611" x1="46.139" y1="37.2381" x2="46.139" y2="113.485" gradientUnits="userSpaceOnUse">
<stop stop-color="#B266FC"/>
<stop offset="1" stop-color="#9CFBFF"/>
</linearGradient>
<linearGradient id="paint2_linear_721_2611" x1="46.8865" y1="16.3077" x2="77.9085" y2="75.3616" gradientUnits="userSpaceOnUse">
<stop stop-color="#457E9A"/>
<stop offset="1" stop-color="#611BA7"/>
</linearGradient>
<linearGradient id="paint3_linear_721_2611" x1="15.117" y1="75.3615" x2="46.8865" y2="133.668" gradientUnits="userSpaceOnUse">
<stop stop-color="#611FA7"/>
<stop offset="1" stop-color="#457E9B"/>
</linearGradient>
<linearGradient id="paint4_linear_721_2611" x1="46.8865" y1="15.5602" x2="16.9858" y2="75.3616" gradientUnits="userSpaceOnUse">
<stop stop-color="#6EE7E7"/>
<stop offset="1" stop-color="#8F00FF"/>
</linearGradient>
</defs>
</svg>
