<svg width="80" height="111" viewBox="0 0 80 111" fill="none" xmlns="http://www.w3.org/2000/svg">
<path d="M43.0167 0.844149C40.8671 -0.684686 38.5385 0.207134 37.6428 0.844149L2.32902 26.0699C0.179488 27.293 -0.101999 30.4016 0.0259495 31.803V79.1969C0.0259495 81.6431 1.30544 83.5286 1.94518 84.1656L37.6428 110.156C39.4853 111.685 41.7372 110.793 42.6328 110.156L77.5628 84.1656C79.0982 82.9426 79.7379 81.3628 79.8659 80.7258V31.4208C79.8659 28.6689 78.3305 26.9617 77.5628 26.4521L43.0167 0.844149Z" fill="url(#paint0_linear_552_1633)"/>
<path d="M41.9025 20.4894C40.5388 19.5208 39.0615 20.0858 38.4933 20.4894L16.0899 36.4717C14.7262 37.2466 14.5476 39.2161 14.6288 40.104V70.1315C14.6288 71.6813 15.4405 72.8759 15.8463 73.2795L38.4933 89.7462C39.6621 90.7148 41.0908 90.1498 41.659 89.7462L63.8188 73.2795C64.7929 72.5046 65.1988 71.5037 65.2799 71.1001V39.8619C65.2799 38.1184 64.3059 37.0367 63.8188 36.7139L41.9025 20.4894Z" fill="url(#paint1_linear_552_1633)"/>
<path d="M40.7135 0.079895V19.9548C41.0206 19.9548 41.6091 20.2096 41.865 20.337L63.7442 36.7719C64.0513 37.0777 64.6399 37.9186 64.8958 38.3008L79.0981 28.3633C78.791 27.446 77.6906 26.4523 77.1788 26.0701L43.4004 1.22652C42.1721 0.30922 41.0973 0.079895 40.7135 0.079895Z" fill="url(#paint2_linear_552_1633)"/>
<path d="M40.7135 0.0798657V19.9547C40.4064 19.9547 39.0502 20.2095 38.7943 20.3369L16.1474 36.3897C15.3797 36.7719 15.3797 37.1541 14.9958 37.5363L0.793549 27.9811C0.793549 27.2167 2.96867 25.6879 3.48047 25.3057L37.6427 0.844248C38.871 -0.0730532 40.3297 0.0798657 40.7135 0.0798657Z" fill="url(#paint3_linear_552_1633)"/>
<path d="M39.9458 110.92V90.281C40.867 90.281 41.6091 89.7713 41.865 89.5165L64.1281 73.0816C65.0493 72.1643 65.2796 71.1705 65.2796 70.7883L79.8658 80.7257C79.5587 82.2546 77.9465 83.9108 77.1788 84.5478L43.0166 109.774C41.7883 110.997 40.4576 111.048 39.9458 110.92Z" fill="url(#paint4_linear_552_1633)"/>
<path d="M16.1468 73.4638C15.5326 73.1581 15.1232 72.3172 14.9953 71.935L0.409119 81.4902C0.716195 82.7133 1.56066 83.7835 1.9445 84.1657L37.6422 110.156C38.5634 110.767 39.5614 110.92 39.9452 110.92V90.281C39.3311 90.5868 38.4098 89.8988 38.026 89.5166L16.1468 73.4638Z" fill="url(#paint5_linear_552_1633)"/>
<defs>
<linearGradient id="paint0_linear_552_1633" x1="40" y1="20" x2="40" y2="90.5" gradientUnits="userSpaceOnUse">
<stop stop-color="#6EE7E7"/>
<stop offset="1" stop-color="#8F00FF"/>
</linearGradient>
<linearGradient id="paint1_linear_552_1633" x1="39.9461" y1="19.9546" x2="39.9461" y2="90.281" gradientUnits="userSpaceOnUse">
<stop stop-color="#9AFDFF"/>
<stop offset="1" stop-color="#B25FFA"/>
</linearGradient>
<linearGradient id="paint2_linear_552_1633" x1="41" y1="10.5" x2="75.5" y2="33.5" gradientUnits="userSpaceOnUse">
<stop stop-color="#421566"/>
<stop offset="1" stop-color="#385A5E"/>
</linearGradient>
<linearGradient id="paint3_linear_552_1633" x1="41" y1="9" x2="7" y2="32.5" gradientUnits="userSpaceOnUse">
<stop stop-color="#601CA7"/>
<stop offset="1" stop-color="#428A98"/>
</linearGradient>
<linearGradient id="paint4_linear_552_1633" x1="72" y1="77" x2="40" y2="102.5" gradientUnits="userSpaceOnUse">
<stop stop-color="#601BA7"/>
<stop offset="1" stop-color="#438698"/>
</linearGradient>
<linearGradient id="paint5_linear_552_1633" x1="7.99994" y1="76.5" x2="39.9999" y2="101.5" gradientUnits="userSpaceOnUse">
<stop stop-color="#421566"/>
<stop offset="1" stop-color="#385A5E"/>
</linearGradient>
</defs>
</svg>
