<svg width="83" height="142" viewBox="0 0 83 142" fill="none" xmlns="http://www.w3.org/2000/svg">
<path d="M39.7656 0.920291L0.520903 68.5706C-0.348209 69.9877 0.0255488 70.7353 0.520903 71.9345L39.7656 140.332C40.7653 141.749 42.6341 141.749 43.5032 140.332L82.3741 73.0557C83.3738 70.7353 82.6263 69.2402 82.3741 68.5706L43.5032 0.920291C42.2604 -0.652662 40.3916 0.094816 39.7656 0.920291Z" fill="url(#paint0_linear_644_1304)"/>
<path d="M40.2329 32.7344L18.9954 69.2145C18.5251 69.9787 18.7273 70.3818 18.9954 71.0285L40.2329 107.912C40.7739 108.676 41.7852 108.676 42.2555 107.912L63.2908 71.6331C63.8318 70.3818 63.4273 69.5756 63.2908 69.2146L42.2555 32.7344C41.583 31.8862 40.5717 32.2892 40.2329 32.7344Z" fill="url(#paint1_linear_644_1304)"/>
<path d="M83 70.3615H63.5645C63.5645 69.7635 63.3154 69.1157 63.1908 68.8665L42.2603 32.9857C41.9613 32.3877 41.6373 32.2382 41.5128 32.2382V0.0948882C42.4098 -0.204119 43.3816 0.71782 43.7553 1.21616L82.2525 68.4927C82.8505 69.6888 83 70.237 83 70.3615Z" fill="url(#paint2_linear_644_1304)"/>
<path d="M0.0255127 70.3615H18.7135L40.0177 107.737C40.6157 108.634 41.2636 108.609 41.5127 108.485L41.8865 141.376C40.6905 141.376 39.8931 140.379 39.6439 139.881L1.14679 72.9778C0.548775 72.0808 0.150099 70.8599 0.0255127 70.3615Z" fill="url(#paint3_linear_644_1304)"/>
<path d="M41.5127 32.2382V0.0949097C40.6157 0.0949097 39.8931 0.842427 39.6439 1.21619L0.77303 68.119C0.175016 69.315 0.0255127 70.1124 0.0255127 70.3616H18.7135C18.7135 69.7635 18.9626 69.3649 19.0872 69.2403L40.0177 32.9857C40.3167 32.0887 41.139 32.1136 41.5127 32.2382Z" fill="url(#paint4_linear_644_1304)"/>
<defs>
<linearGradient id="paint0_linear_644_1304" x1="75.1511" y1="70.3615" x2="41.44" y2="141.395" gradientUnits="userSpaceOnUse">
<stop stop-color="#421566"/>
<stop offset="1" stop-color="#385A5E"/>
</linearGradient>
<linearGradient id="paint1_linear_644_1304" x1="41.139" y1="32.2381" x2="41.139" y2="108.485" gradientUnits="userSpaceOnUse">
<stop stop-color="#B266FC"/>
<stop offset="1" stop-color="#9CFBFF"/>
</linearGradient>
<linearGradient id="paint2_linear_644_1304" x1="41.8865" y1="11.3077" x2="72.9085" y2="70.3616" gradientUnits="userSpaceOnUse">
<stop stop-color="#457E9A"/>
<stop offset="1" stop-color="#611BA7"/>
</linearGradient>
<linearGradient id="paint3_linear_644_1304" x1="10.117" y1="70.3615" x2="41.8865" y2="128.668" gradientUnits="userSpaceOnUse">
<stop stop-color="#611FA7"/>
<stop offset="1" stop-color="#457E9B"/>
</linearGradient>
<linearGradient id="paint4_linear_644_1304" x1="41.8865" y1="10.5602" x2="11.9858" y2="70.3616" gradientUnits="userSpaceOnUse">
<stop stop-color="#6EE7E7"/>
<stop offset="1" stop-color="#8F00FF"/>
</linearGradient>
</defs>
</svg>
