<svg width="111" height="97" viewBox="0 0 111 97" fill="none" xmlns="http://www.w3.org/2000/svg">
<path d="M4.52475 96.3049L108.609 96.3049C112.277 96.3049 110.749 92.9344 109.526 91.2492L58.1717 1.62413C55.9708 -1.31742 53.5865 0.398486 52.6695 1.62413L0.856583 91.2492C-1.71114 95.6615 2.23215 96.4581 4.52475 96.3049Z" fill="url(#paint0_linear_648_1169)"/>
<path d="M28.851 79.7672L82.2183 79.7672C84.099 79.7672 83.3154 78.0302 82.6885 77.1617L56.3575 30.9746C55.229 29.4587 54.0065 30.343 53.5363 30.9746L26.9703 77.1617C25.6537 79.4356 27.6756 79.8461 28.851 79.7672Z" fill="url(#paint1_linear_648_1169)"/>
<path d="M55.4277 0.262581L54.9692 30.1376C54.0521 29.678 53.1351 31.5165 53.1351 31.5165L26.9994 77.0184C26.2657 78.1215 26.388 78.7037 26.5408 78.8569L0.405148 94.9434C-0.328484 94.208 0.0994684 92.7986 0.405148 92.1857L52.6766 2.10104C53.777 0.262581 54.9692 0.109375 55.4277 0.262581Z" fill="url(#paint2_linear_648_1169)"/>
<path d="M55.4276 0.262523L54.969 30.1375C55.7026 30.1375 56.1918 30.7504 56.3447 31.0568L82.9389 77.478C83.6725 78.5811 83.5502 79.1632 83.3974 79.3164L110.909 95.403C111.275 94.2999 110.45 92.7985 109.992 92.1857L58.1787 1.64137C57.0782 0.170596 55.8861 0.109317 55.4276 0.262523Z" fill="url(#paint3_linear_648_1169)"/>
<defs>
<linearGradient id="paint0_linear_648_1169" x1="11.5001" y1="87.4999" x2="95.0001" y2="88.4999" gradientUnits="userSpaceOnUse">
<stop stop-color="#6EE7E7"/>
<stop offset="1" stop-color="#8F00FF"/>
</linearGradient>
<linearGradient id="paint1_linear_648_1169" x1="54.969" y1="79.7761" x2="54.969" y2="30.1376" gradientUnits="userSpaceOnUse">
<stop stop-color="#9BFBFF"/>
<stop offset="1" stop-color="#B265FB"/>
</linearGradient>
<linearGradient id="paint2_linear_648_1169" x1="11.0001" y1="90" x2="55.0001" y2="11.4999" gradientUnits="userSpaceOnUse">
<stop stop-color="#385A5E"/>
<stop offset="1" stop-color="#421566"/>
</linearGradient>
<linearGradient id="paint3_linear_648_1169" x1="98.5" y1="86.9999" x2="55" y2="11.4999" gradientUnits="userSpaceOnUse">
<stop stop-color="#5F23A7"/>
<stop offset="1" stop-color="#448499"/>
</linearGradient>
</defs>
</svg>
