<svg width="86" height="118" viewBox="0 0 86 118" fill="none" xmlns="http://www.w3.org/2000/svg">
<path d="M39.7734 3.62179L39.7709 3.62358L4.51462 28.8083C3.01974 29.6914 2.25932 31.1637 1.88368 32.4487C1.51062 33.725 1.4566 35.008 1.52595 35.8671V83.1969C1.52595 86.13 3.03351 88.3789 3.88679 89.2286C3.94136 89.2829 4.00003 89.333 4.06229 89.3783L39.7245 115.343C41.0168 116.395 42.4621 116.606 43.6762 116.457C44.8625 116.311 45.8811 115.82 46.5022 115.378C46.511 115.372 46.5196 115.366 46.5282 115.359L81.4582 89.3691C81.4714 89.3592 81.4845 89.3492 81.4974 89.3389C83.3384 87.8723 84.1466 85.9665 84.3365 85.0212C84.356 84.9239 84.3659 84.825 84.3659 84.7258V35.4208C84.3659 32.1369 82.5608 29.9981 81.4288 29.2269L46.9099 3.63912L46.8861 3.62179C44.0047 1.57243 40.9409 2.79147 39.7734 3.62179Z" fill="url(#paint0_linear_721_2599)" stroke="white" stroke-width="3" stroke-linejoin="round"/>
<path d="M44.9025 24.4894C43.5388 23.5208 42.0615 24.0858 41.4933 24.4894L19.0899 40.4717C17.7262 41.2466 17.5476 43.2161 17.6288 44.104V74.1315C17.6288 75.6813 18.4405 76.8759 18.8463 77.2795L41.4933 93.7462C42.6621 94.7148 44.0908 94.1498 44.659 93.7462L66.8188 77.2795C67.7929 76.5046 68.1988 75.5037 68.2799 75.1001V43.8619C68.2799 42.1184 67.3059 41.0367 66.8188 40.7139L44.9025 24.4894Z" fill="url(#paint1_linear_721_2599)"/>
<path d="M43.7135 4.0799V23.9548C44.0206 23.9548 44.6091 24.2096 44.865 24.337L66.7442 40.7719C67.0513 41.0777 67.6399 41.9186 67.8958 42.3008L82.0981 32.3633C81.791 31.446 80.6906 30.4523 80.1788 30.0701L46.4004 5.22652C45.1721 4.30922 44.0973 4.0799 43.7135 4.0799Z" fill="url(#paint2_linear_721_2599)"/>
<path d="M43.7135 4.07987V23.9547C43.4064 23.9547 42.0502 24.2095 41.7943 24.3369L19.1474 40.3897C18.3797 40.7719 18.3797 41.1541 17.9958 41.5363L3.79355 31.9811C3.79355 31.2167 5.96867 29.6879 6.48047 29.3057L40.6427 4.84425C41.871 3.92695 43.3297 4.07987 43.7135 4.07987Z" fill="url(#paint3_linear_721_2599)"/>
<path d="M42.9458 114.92V94.281C43.867 94.281 44.6091 93.7713 44.865 93.5165L67.1281 77.0816C68.0493 76.1643 68.2796 75.1705 68.2796 74.7883L82.8658 84.7257C82.5587 86.2546 80.9465 87.9108 80.1788 88.5478L46.0166 113.774C44.7883 114.997 43.4576 115.048 42.9458 114.92Z" fill="url(#paint4_linear_721_2599)"/>
<path d="M19.1468 77.4638C18.5326 77.1581 18.1232 76.3172 17.9953 75.935L3.40912 85.4902C3.7162 86.7133 4.56066 87.7835 4.9445 88.1657L40.6422 114.156C41.5634 114.767 42.5614 114.92 42.9452 114.92V94.281C42.3311 94.5868 41.4098 93.8988 41.026 93.5166L19.1468 77.4638Z" fill="url(#paint5_linear_721_2599)"/>
<defs>
<linearGradient id="paint0_linear_721_2599" x1="43" y1="24" x2="43" y2="94.5" gradientUnits="userSpaceOnUse">
<stop stop-color="#6EE7E7"/>
<stop offset="1" stop-color="#8F00FF"/>
</linearGradient>
<linearGradient id="paint1_linear_721_2599" x1="42.9461" y1="23.9546" x2="42.9461" y2="94.281" gradientUnits="userSpaceOnUse">
<stop stop-color="#9AFDFF"/>
<stop offset="1" stop-color="#B25FFA"/>
</linearGradient>
<linearGradient id="paint2_linear_721_2599" x1="44" y1="14.5" x2="78.5" y2="37.5" gradientUnits="userSpaceOnUse">
<stop stop-color="#421566"/>
<stop offset="1" stop-color="#385A5E"/>
</linearGradient>
<linearGradient id="paint3_linear_721_2599" x1="44" y1="13" x2="10" y2="36.5" gradientUnits="userSpaceOnUse">
<stop stop-color="#601CA7"/>
<stop offset="1" stop-color="#428A98"/>
</linearGradient>
<linearGradient id="paint4_linear_721_2599" x1="75" y1="81" x2="43" y2="106.5" gradientUnits="userSpaceOnUse">
<stop stop-color="#601BA7"/>
<stop offset="1" stop-color="#438698"/>
</linearGradient>
<linearGradient id="paint5_linear_721_2599" x1="10.9999" y1="80.5" x2="42.9999" y2="105.5" gradientUnits="userSpaceOnUse">
<stop stop-color="#421566"/>
<stop offset="1" stop-color="#385A5E"/>
</linearGradient>
</defs>
</svg>
