<svg width="322" height="51" viewBox="0 0 322 51" fill="none" xmlns="http://www.w3.org/2000/svg">
<path d="M31.9846 34.3784V34.4392C31.9846 34.6418 31.9846 34.9255 31.9846 35.2902C32.0251 35.6954 32.0454 35.9791 32.0454 36.1412C32.0454 42.0575 29.7963 46.0693 25.2983 48.1765C22.7859 49.3516 20.0911 49.9392 17.214 49.9392C13.3643 49.9392 10.2238 48.8654 7.79243 46.7176C2.68654 42.2196 0.153863 35.898 0.194386 27.7529C0.194386 24.1869 0.619876 20.1346 1.47086 15.5961C2.11922 12.1111 3.51726 8.88954 5.66497 5.93137C6.71857 4.47255 8.23818 3.29738 10.2238 2.40588C12.2499 1.47385 14.4179 1.00784 16.7277 1.00784C19.4022 1.00784 21.8944 1.71699 24.2042 3.13529C26.5545 4.51307 28.378 6.37712 29.6748 8.72745C30.4447 10.1458 30.8499 11.7261 30.8905 13.4686C30.931 15.1301 30.5258 16.6497 29.6748 18.0274C28.5401 19.8915 27.0813 20.9248 25.2983 21.1274C22.4617 21.4111 19.9493 20.1346 17.7611 17.298C17.7205 17.1765 17.6395 16.6902 17.5179 15.8392C17.4369 15.1908 17.1329 14.8869 16.6062 14.9275L15.9983 16.0216C15.5931 24.6124 15.3905 29.0091 15.3905 29.2118C15.3905 30.3869 15.431 31.5418 15.512 32.6765C15.5931 33.8111 16.0794 34.5608 16.9709 34.9255C17.9029 34.885 19.5035 33.8516 21.7728 31.8255C24.0826 29.7993 25.663 28.7863 26.514 28.7863C27.1624 28.7863 27.831 28.9281 28.5199 29.2118C30.8297 29.9007 31.9846 31.6229 31.9846 34.3784ZM72.2675 8.97059L72.3283 8.9098C72.4904 10.8144 72.5714 12.9418 72.5714 15.2922C72.5714 24.5719 71.0923 33.1627 68.1342 41.0647C67.3642 43.1314 66.1485 45.0157 64.4871 46.7176C62.8662 48.3791 61.1642 49.4732 59.3812 50C57.7198 50.2431 56.0989 50.3647 54.5185 50.3647C50.0204 50.3647 46.2518 49.3111 43.2126 47.2039C40.2949 45.2183 38.2485 42.402 37.0734 38.7549C36.1819 35.9993 35.7361 32.1902 35.7361 27.3274C35.7361 20.0333 36.4453 13.9549 37.8636 9.09215C38.3093 7.59281 39.2616 6.25555 40.7204 5.08039C42.2198 3.90523 43.7191 3.2366 45.2185 3.07451C46.5152 2.95294 47.7917 3.29738 49.0479 4.10784C50.3446 4.87778 51.2969 5.89085 51.9047 7.14705C52.0263 8.1196 52.0871 9.15294 52.0871 10.2471C52.0871 11.5843 51.7224 14.4412 50.993 18.8176C50.2636 23.1941 49.8989 26.0105 49.8989 27.2667C49.8989 28.4824 49.9799 29.5562 50.142 30.4882C50.3851 31.1771 51.0538 31.866 52.1479 32.5549C53.4851 32.717 54.4374 32.5549 55.0047 32.0686C56.0583 30.934 56.7067 29.4346 56.9498 27.5706C56.9093 24.815 56.9701 21.2693 57.1322 16.9333C57.5374 13.4484 57.8008 11.3007 57.9224 10.4902C58.2466 8.18039 58.6315 6.41764 59.0773 5.20196C60.5361 2.85163 62.1976 1.69673 64.0616 1.73725C65.8041 1.77777 67.4047 2.4464 68.8636 3.74313C70.3224 5.03987 71.457 6.78235 72.2675 8.97059ZM87.4861 37.5392H87.5469C89.0057 37.1745 89.7554 36.4451 89.7959 35.351C89.7959 34.9458 89.6136 34.5608 89.2489 34.1961C88.9247 33.8314 87.6482 32.9601 85.4195 31.5824C83.5554 30.4072 82.1979 29.4144 81.3469 28.6039C80.1717 27.4693 79.0979 25.9294 78.1253 23.9843C76.8691 21.4314 76.241 18.8379 76.241 16.2039C76.241 12.3948 77.7404 8.99085 80.7391 5.99216C84.0619 2.66928 88.0332 1.00784 92.6528 1.00784C95.3273 1.00784 97.7384 1.63595 99.8861 2.89216C101.223 3.70261 102.662 5.20196 104.202 7.39019C104.85 8.36274 105.195 9.27451 105.235 10.1255C105.276 11.1386 104.789 12.3745 103.776 13.8333L103.837 13.8941C102.54 15.7176 101.183 16.6294 99.7646 16.6294C99.2783 16.6294 98.6097 16.5281 97.7587 16.3255C96.4619 16.0013 95.7123 14.8667 95.5097 12.9216C95.4286 12.1516 94.841 11.7667 93.7469 11.7667C93.1796 11.7667 92.6731 11.9085 92.2273 12.1922C91.7815 13.0026 91.5587 13.8131 91.5587 14.6235C91.5587 16.0013 92.207 17.1562 93.5038 18.0882C98.2855 21.4922 101.102 23.5993 101.953 24.4098C104.992 27.2869 106.613 30.3059 106.816 33.4667C106.856 34.2366 106.917 35.2699 106.998 36.5667C107.079 41.7941 103.938 45.8667 97.5763 48.7843C95.1855 49.8784 92.9162 50.4255 90.7685 50.4255C90.4443 50.4255 89.9985 50.385 89.4312 50.3039L89.3097 50.2431C81.5293 48.9869 77.3351 46.049 76.7273 41.4294C76.5652 40.3758 76.4436 39.6464 76.3626 39.2412C76.3221 38.7954 76.3018 38.6536 76.3018 38.8157C76.3018 37.7216 76.626 36.7693 77.2744 35.9588C77.9227 35.1484 78.6521 34.7431 79.4626 34.7431C79.8273 34.7431 80.9012 35.2294 82.6842 36.202C84.4672 37.134 85.7031 37.6 86.392 37.6C86.6757 37.6 87.0201 37.5595 87.4253 37.4784L87.4861 37.5392ZM144.064 9.63921H144.125C144.246 10.2471 144.307 11.0373 144.307 12.0098C144.267 14.0359 143.78 15.5758 142.848 16.6294C142.484 17.0346 140.842 17.5209 137.925 18.0882C135.048 18.615 133.569 18.9595 133.488 19.1216C133.406 19.5673 133.872 23.802 134.886 31.8255C135.088 33.4464 135.189 35.0673 135.189 36.6882C135.189 40.3758 134.703 43.415 133.731 45.8059C132.515 48.8046 130.732 50.2634 128.382 50.1824C124.572 50.0608 121.918 48.8654 120.419 46.5961C119.284 44.8941 118.697 42.1993 118.656 38.5118C118.656 38.8359 118.737 36.7085 118.899 32.1294L119.203 24.349C119.365 21.9176 119.629 19.8105 119.993 18.0274C119.75 18.1085 119.386 18.149 118.899 18.149C117.521 18.149 116.144 17.9261 114.766 17.4804C112.902 16.8725 111.625 15.981 110.937 14.8059C109.964 13.1444 109.478 11.5843 109.478 10.1255C109.478 7.69412 110.815 5.8098 113.489 4.47255C116.934 2.73006 121.088 1.85882 125.95 1.85882C128.503 1.85882 131.178 2.10196 133.974 2.58823C135.311 3.07451 137.337 3.82418 140.052 4.83725C142.321 6.01242 143.659 7.61307 144.064 9.63921ZM181.121 39.302L181.182 39.3627C180.128 42.6451 178.264 45.2386 175.59 47.1431C172.956 49.0477 169.896 50 166.411 50C159.968 50 154.964 47.5686 151.398 42.7059C148.359 38.5725 146.839 33.5477 146.839 27.6314C146.839 24.9163 147.082 22.4039 147.568 20.0941C149.797 9.51764 154.518 3.56078 161.731 2.22353C162.379 2.10196 163.068 2.04117 163.798 2.04117C167.04 2.04117 170.18 3.11503 173.219 5.26274C176.299 7.41046 178.366 10.0242 179.419 13.1039C181.689 19.7902 182.823 24.9974 182.823 28.7255C182.823 31.8863 182.236 35.4118 181.06 39.302H181.121ZM166.047 34.9255V34.8647C167.222 34.6621 167.81 32.4131 167.81 28.1176C167.81 25.6458 167.587 23.3765 167.141 21.3098C166.695 19.2026 166.209 18.1085 165.682 18.0274C164.791 17.7843 163.98 18.7569 163.251 20.9451C162.521 23.1333 162.157 25.5444 162.157 28.1784C162.157 33.0817 163.453 35.3307 166.047 34.9255ZM230.505 41.8549C230.505 43.9621 230.08 45.6033 229.229 46.7784C228.54 47.7105 227.649 48.3183 226.554 48.602C225.987 48.7641 225.156 48.9667 224.062 49.2098C223.211 49.4124 222.664 49.5137 222.421 49.5137C220.679 49.5137 219.2 48.7438 217.984 47.2039C216.768 45.6235 216.16 43.6784 216.16 41.3686C216.16 40.4771 216.383 38.4105 216.829 35.1686C217.194 32.6562 217.214 30.6706 216.89 29.2118C216.687 29.8196 216.059 31.6634 215.005 34.7431C213.628 38.6333 212.392 41.0039 211.298 41.8549C210.69 42.3412 209.96 42.5843 209.109 42.5843C208.461 42.5843 207.792 42.3614 207.103 41.9157C204.915 39.6464 203.213 35.2497 201.998 28.7255C201.795 29.7386 201.694 30.7719 201.694 31.8255C201.694 32.4333 201.856 34.3582 202.18 37.6C202.423 39.9098 202.423 41.7536 202.18 43.1314C201.856 44.9144 200.985 46.4948 199.566 47.8725C198.148 48.683 196.79 49.0882 195.494 49.0882C193.711 49.0882 192.069 48.298 190.57 46.7176C188.909 43.881 187.936 41.9967 187.652 41.0647C187.045 39.2412 186.741 36.5059 186.741 32.8588C186.741 29.4954 187.024 23.5386 187.592 14.9882C187.794 12.0301 188.686 9.51764 190.266 7.45098C191.887 5.34379 194.055 3.90523 196.77 3.13529C202.16 2.9732 206.252 7.61307 209.049 17.0549C209.251 15.3124 209.879 13.0026 210.933 10.1255C212.473 5.91111 214.215 3.33791 216.16 2.40588C218.065 1.83856 219.686 1.5549 221.023 1.5549C223.252 1.5549 224.954 2.24379 226.129 3.62157C227.669 5.03987 228.743 6.8634 229.351 9.09215C229.756 10.5915 230.019 12.9824 230.141 16.2647C230.181 19.2634 230.222 22.2621 230.262 25.2608C230.424 31.9065 230.505 37.4176 230.505 41.7941V41.8549ZM252.078 9.94314C252.078 11.6046 252.118 13.6307 252.2 16.0216C252.281 18.4124 252.321 19.9523 252.321 20.6412C252.362 28.6647 251.815 35.8373 250.68 42.1588C249.95 46.2516 248.086 48.7033 245.088 49.5137C244.196 49.5948 243.588 49.6353 243.264 49.6353C239.171 49.6353 236.862 47.751 236.335 43.9824C235.403 37.4987 234.957 31.6431 234.998 26.4157C235.038 20.9046 235.464 16.0216 236.274 11.7667L237.915 7.69412C240.022 4.6549 243.021 3.13529 246.911 3.13529C247.803 3.13529 248.593 3.21634 249.282 3.37843C250.416 3.90523 251.166 4.85751 251.531 6.23529L252.078 9.94314ZM290.59 7.26863L290.772 9.09215C290.772 16.5889 285.484 24.8556 274.907 33.8922C274.583 34.581 274.806 35.0065 275.576 35.1686C277.075 34.3987 279.487 34.0137 282.809 34.0137C284.836 34.0137 286.335 34.1758 287.307 34.5C289.212 35.1484 290.185 36.8301 290.225 39.5451C290.225 40.1935 290.104 40.9229 289.86 41.7333C288.847 45.0562 287.49 47.1634 285.788 48.0549C281.087 49.1895 276.589 49.7569 272.294 49.7569C267.512 49.7569 263.521 49.0275 260.319 47.5686C258.334 46.6771 256.976 44.7928 256.247 41.9157C256.409 37.9444 257.199 34.5 258.617 31.5824C260.036 28.6242 262.507 25.3824 266.033 21.8569C269.153 19.9523 270.956 18.149 271.443 16.4471C271.119 16.2444 270.693 16.1431 270.166 16.1431C269.599 16.1431 268.971 16.2039 268.282 16.3255C267.593 16.4471 267.046 16.5484 266.641 16.6294C266.236 16.7105 265.567 16.751 264.635 16.751C262.001 16.751 260.056 15.6569 258.8 13.4686C258.354 12.6987 258.131 11.6654 258.131 10.3686C258.131 6.88366 259.104 4.51307 261.049 3.25686C263.642 1.59542 268.93 0.764703 276.913 0.764703C280.885 0.764703 283.093 0.926795 283.539 1.25098C285.038 1.49411 286.477 2.183 287.854 3.31764C289.232 4.45229 290.144 5.72876 290.59 7.14705V7.26863ZM321.442 20.4588C321.604 21.0667 321.664 21.6948 321.624 22.3431C321.624 24.4908 320.753 26.2941 319.01 27.7529C317.43 29.1307 315.728 29.7183 313.904 29.5157C313.58 29.3941 312.972 29.3739 312.081 29.4549C312.162 29.9412 312.02 31.2379 311.655 33.3451C311.655 34.3176 312.081 35.0471 312.932 35.5333C314.593 35.0876 315.951 35.0876 317.004 35.5333C318.666 36.1817 319.578 37.2758 319.74 38.8157C319.942 40.5582 319.436 42.3412 318.22 44.1647C317.004 45.9477 315.323 47.4471 313.175 48.6627C311.27 49.7569 309.021 50.3039 306.428 50.3039C304.159 50.3039 302.112 49.8784 300.289 49.0275C299.519 48.6627 298.364 47.5281 296.824 45.6235C295.163 42.868 294.312 37.0529 294.271 28.1784C294.231 23.0725 294.656 17.2373 295.548 10.6725C296.074 6.8634 297.168 4.3915 298.83 3.25686L308.981 2.22353C310.723 1.85882 312.385 1.67647 313.965 1.67647C317.126 1.67647 318.99 2.46667 319.557 4.04706C319.8 4.69542 319.922 5.42484 319.922 6.23529C319.922 7.97777 319.274 9.39607 317.977 10.4902C316.68 11.5843 314.877 12.1314 312.567 12.1314C312 12.1314 311.554 12.1111 311.23 12.0706C310.946 12.6784 310.784 13.651 310.744 14.9882C310.663 16.6902 310.602 17.6627 310.561 17.9059C310.683 18.4732 311.108 18.8379 311.838 19C313.013 18.068 314.492 17.602 316.275 17.602C318.342 17.602 320.064 18.5542 321.442 20.4588Z" fill="url(#paint0_linear_587_2613)"/>
<defs>
<linearGradient id="paint0_linear_587_2613" x1="161" y1="-14" x2="161" y2="50" gradientUnits="userSpaceOnUse">
<stop stop-color="#C4FFE3"/>
<stop offset="1" stop-color="#EEFFFD"/>
</linearGradient>
</defs>
</svg>
