<svg width="319" height="51" viewBox="0 0 319 51" fill="none" xmlns="http://www.w3.org/2000/svg">
<path d="M27.3332 20.4588C27.4953 21.0667 27.5561 21.6948 27.5156 22.3431C27.5156 24.4908 26.6443 26.2941 24.9019 27.7529C23.3215 29.1307 21.6195 29.7183 19.796 29.5157C19.4718 29.3941 18.8639 29.3739 17.9724 29.4549C18.0535 29.9412 17.9117 31.2379 17.5469 33.3451C17.5469 34.3176 17.9724 35.0471 18.8234 35.5333C20.4849 35.0876 21.8424 35.0876 22.896 35.5333C24.5574 36.1817 25.4692 37.2758 25.6313 38.8157C25.8339 40.5582 25.3273 42.3412 24.1117 44.1647C22.896 45.9477 21.2143 47.4471 19.0666 48.6627C17.162 49.7569 14.913 50.3039 12.3195 50.3039C10.0502 50.3039 8.00381 49.8784 6.18028 49.0275C5.41035 48.6627 4.25544 47.5281 2.71558 45.6235C1.05414 42.868 0.203157 37.0529 0.162634 28.1784C0.122111 23.0725 0.547602 17.2373 1.4391 10.6725C1.9659 6.8634 3.06002 4.3915 4.72146 3.25686L14.8724 2.22353C16.6149 1.85882 18.2764 1.67647 19.8568 1.67647C23.0175 1.67647 24.8816 2.46667 25.4489 4.04706C25.692 4.69542 25.8136 5.42484 25.8136 6.23529C25.8136 7.97777 25.1652 9.39607 23.8685 10.4902C22.5718 11.5843 20.7685 12.1314 18.4587 12.1314C17.8914 12.1314 17.4456 12.1111 17.1215 12.0706C16.8378 12.6784 16.6757 13.651 16.6352 14.9882C16.5541 16.6902 16.4934 17.6627 16.4528 17.9059C16.5744 18.4732 16.9999 18.8379 17.7293 19C18.9045 18.068 20.3836 17.602 22.1666 17.602C24.2332 17.602 25.9554 18.5542 27.3332 20.4588ZM61.9188 23.3157C61.9188 28.9078 60.7031 33.9529 58.2717 38.451C55.3136 44.0026 50.9168 47.6092 45.0815 49.2706C41.9207 49.4732 39.0639 49.1085 36.5109 48.1765C33.9985 47.2039 32.6815 45.9477 32.56 44.4078C31.8305 33.5882 31.4658 23.1941 31.4658 13.2255C31.4658 9.53791 31.5469 6.90392 31.709 5.32353C32.7221 3.13529 35.9841 2.04117 41.4953 2.04117C44.6155 2.04117 47.3913 2.40588 49.8227 3.13529C52.3756 4.31046 54.6855 6.25555 56.7521 8.97059C60.1966 13.5091 61.9188 18.2908 61.9188 23.3157ZM46.7227 17.8451C46.1554 17.1562 45.6083 16.8118 45.0815 16.8118C44.8384 16.8118 44.5345 16.8928 44.1698 17.0549C43.8051 17.217 43.6024 17.298 43.5619 17.298C44.0077 20.1752 44.2913 24.9569 44.4129 31.6431C45.5881 30.8327 46.5606 29.6373 47.3305 28.0569C48.141 26.4765 48.5462 24.8758 48.5462 23.2549C48.5462 21.1477 47.9384 19.3444 46.7227 17.8451ZM83.3621 9.94314C83.3621 11.6046 83.4026 13.6307 83.4837 16.0216C83.5647 18.4124 83.6053 19.9523 83.6053 20.6412C83.6458 28.6647 83.0987 35.8373 81.9641 42.1588C81.2347 46.2516 79.3706 48.7033 76.3719 49.5137C75.4804 49.5948 74.8726 49.6353 74.5484 49.6353C70.4556 49.6353 68.1458 47.751 67.619 43.9824C66.6869 37.4987 66.2412 31.6431 66.2817 26.4157C66.3222 20.9046 66.7477 16.0216 67.5582 11.7667L69.1994 7.69412C71.3066 4.6549 74.3053 3.13529 78.1954 3.13529C79.087 3.13529 79.8771 3.21634 80.566 3.37843C81.7007 3.90523 82.4503 4.85751 82.8151 6.23529L83.3621 9.94314ZM121.266 9.63921H121.327C121.448 10.2471 121.509 11.0373 121.509 12.0098C121.469 14.0359 120.982 15.5758 120.05 16.6294C119.686 17.0346 118.045 17.5209 115.127 18.0882C112.25 18.615 110.771 18.9595 110.69 19.1216C110.609 19.5673 111.075 23.802 112.088 31.8255C112.29 33.4464 112.392 35.0673 112.392 36.6882C112.392 40.3758 111.905 43.415 110.933 45.8059C109.717 48.8046 107.934 50.2634 105.584 50.1824C101.775 50.0608 99.1204 48.8654 97.621 46.5961C96.4864 44.8941 95.8988 42.1993 95.8583 38.5118C95.8583 38.8359 95.9393 36.7085 96.1014 32.1294L96.4053 24.349C96.5674 21.9176 96.8308 19.8105 97.1955 18.0274C96.9524 18.1085 96.5877 18.149 96.1014 18.149C94.7236 18.149 93.3459 17.9261 91.9681 17.4804C90.104 16.8725 88.8276 15.981 88.1387 14.8059C87.1661 13.1444 86.6798 11.5843 86.6798 10.1255C86.6798 7.69412 88.0171 5.8098 90.6916 4.47255C94.1361 2.73006 98.2896 1.85882 103.152 1.85882C105.705 1.85882 108.38 2.10196 111.176 2.58823C112.513 3.07451 114.539 3.82418 117.254 4.83725C119.524 6.01242 120.861 7.61307 121.266 9.63921ZM174.668 9.63921H174.729C174.851 10.2471 174.912 11.0373 174.912 12.0098C174.871 14.0359 174.385 15.5758 173.453 16.6294C173.088 17.0346 171.447 17.5209 168.529 18.0882C165.652 18.615 164.173 18.9595 164.092 19.1216C164.011 19.5673 164.477 23.802 165.49 31.8255C165.693 33.4464 165.794 35.0673 165.794 36.6882C165.794 40.3758 165.308 43.415 164.335 45.8059C163.119 48.8046 161.336 50.2634 158.986 50.1824C155.177 50.0608 152.523 48.8654 151.023 46.5961C149.889 44.8941 149.301 42.1993 149.261 38.5118C149.261 38.8359 149.342 36.7085 149.504 32.1294L149.808 24.349C149.97 21.9176 150.233 19.8105 150.598 18.0274C150.355 18.1085 149.99 18.149 149.504 18.149C148.126 18.149 146.748 17.9261 145.37 17.4804C143.506 16.8725 142.23 15.981 141.541 14.8059C140.568 13.1444 140.082 11.5843 140.082 10.1255C140.082 7.69412 141.419 5.8098 144.094 4.47255C147.538 2.73006 151.692 1.85882 156.555 1.85882C159.108 1.85882 161.782 2.10196 164.578 2.58823C165.916 3.07451 167.942 3.82418 170.657 4.83725C172.926 6.01242 174.263 7.61307 174.668 9.63921ZM212.698 44.651V44.7118C212.334 46.6569 211.138 47.8725 209.112 48.3588C208.099 48.602 207.045 48.7235 205.951 48.7235C203.966 48.7235 202.345 48.2575 201.089 47.3255C200.197 46.1503 199.67 45.3804 199.508 45.0157C198.981 43.9621 198.718 42.6046 198.718 40.9431C197.097 40.8621 195.253 40.9431 193.187 41.1863C193.268 41.551 193.349 42.098 193.43 42.8275C193.43 44.4889 192.964 46.2111 192.032 47.9941C190.856 49.6556 189.134 50.4863 186.865 50.4863C185.771 50.4863 184.413 50.2837 182.792 49.8784L182.671 49.7569C179.226 48.0549 177.504 43.8203 177.504 37.0529C177.504 36.6072 177.545 35.5536 177.626 33.8922C177.95 27.5301 178.538 22.5457 179.389 18.9392C180.604 13.8333 182.752 9.25425 185.832 5.20196C188.222 2.0817 191.687 0.521566 196.226 0.521566C201.089 0.521566 204.756 2.04117 207.228 5.08039C208.687 6.8634 209.72 8.95032 210.328 11.3412C212.556 19.8915 213.671 27.4085 213.671 33.8922C213.671 37.7013 213.347 41.2876 212.698 44.651ZM197.32 28.7255C197.604 25.4431 197.401 20.317 196.712 13.3471C196.428 13.0634 196.003 13.1647 195.436 13.651C194.909 17.0954 194.524 19.8915 194.281 22.0392C193.875 25.8078 193.734 27.9556 193.855 28.4824C194.058 28.9281 194.402 29.151 194.889 29.151C195.051 29.151 195.456 29.0902 196.104 28.9686C196.793 28.8065 197.198 28.7255 197.32 28.7255ZM248.648 12.9216C248.769 13.6105 248.83 14.2993 248.83 14.9882C248.83 17.1765 248.384 18.8784 247.493 20.0941C246.115 21.9987 244.048 22.8902 241.293 22.7686C238.78 22.6471 237.099 21.4719 236.248 19.2431V17.5412C236.248 17.0144 236.045 16.5889 235.64 16.2647L235.275 16.3255C232.682 22.8902 231.385 28.4013 231.385 32.8588C231.385 34.3582 231.365 34.885 231.324 34.4392C231.365 35.0065 231.709 35.6144 232.358 36.2627C234.141 36.1007 235.255 35.5536 235.701 34.6216C235.903 34.0542 235.68 33.5274 235.032 33.0412C234.384 32.9601 233.978 32.8386 233.816 32.6765C233.371 32.4739 233.127 32.1497 233.087 31.7039C233.006 30.6908 233.31 29.5967 233.999 28.4216L235.518 27.2059C235.924 27.2059 236.977 27.1451 238.679 27.0235C240.422 26.8614 241.576 26.7804 242.144 26.7804C244.494 26.7804 246.257 27.368 247.432 28.5431C248.202 29.6778 248.587 31.1974 248.587 33.102C248.587 35.3307 248.141 37.6203 247.25 39.9706C246.277 42.5641 244.899 44.7523 243.116 46.5353C241.09 48.5614 238.841 49.7366 236.369 50.0608C235.113 50.2229 234.019 50.3039 233.087 50.3039C229.521 50.3039 226.34 49.149 223.544 46.8392C221.599 45.2183 220.079 42.7869 218.985 39.5451C217.891 36.3033 217.344 32.6359 217.344 28.5431C217.344 22.9915 218.256 17.8856 220.079 13.2255C221.903 8.56536 224.354 5.22222 227.434 3.19608C229.541 2.10196 231.912 1.5549 234.546 1.5549C236.856 1.5549 238.983 2.02091 240.928 2.95294C245.669 6.19477 248.202 9.51764 248.526 12.9216H248.648ZM283.644 12.9216C283.765 13.6105 283.826 14.2993 283.826 14.9882C283.826 17.1765 283.38 18.8784 282.489 20.0941C281.111 21.9987 279.044 22.8902 276.289 22.7686C273.776 22.6471 272.095 21.4719 271.244 19.2431V17.5412C271.244 17.0144 271.041 16.5889 270.636 16.2647L270.271 16.3255C267.678 22.8902 266.381 28.4013 266.381 32.8588C266.381 34.3582 266.361 34.885 266.32 34.4392C266.361 35.0065 266.705 35.6144 267.354 36.2627C269.137 36.1007 270.251 35.5536 270.697 34.6216C270.899 34.0542 270.676 33.5274 270.028 33.0412C269.38 32.9601 268.975 32.8386 268.812 32.6765C268.367 32.4739 268.124 32.1497 268.083 31.7039C268.002 30.6908 268.306 29.5967 268.995 28.4216L270.514 27.2059C270.92 27.2059 271.973 27.1451 273.675 27.0235C275.418 26.8614 276.573 26.7804 277.14 26.7804C279.49 26.7804 281.253 27.368 282.428 28.5431C283.198 29.6778 283.583 31.1974 283.583 33.102C283.583 35.3307 283.137 37.6203 282.246 39.9706C281.273 42.5641 279.895 44.7523 278.112 46.5353C276.086 48.5614 273.837 49.7366 271.365 50.0608C270.109 50.2229 269.015 50.3039 268.083 50.3039C264.517 50.3039 261.336 49.149 258.54 46.8392C256.595 45.2183 255.075 42.7869 253.981 39.5451C252.887 36.3033 252.34 32.6359 252.34 28.5431C252.34 22.9915 253.252 17.8856 255.075 13.2255C256.899 8.56536 259.35 5.22222 262.43 3.19608C264.537 2.10196 266.908 1.5549 269.542 1.5549C271.852 1.5549 273.979 2.02091 275.924 2.95294C280.665 6.19477 283.198 9.51764 283.522 12.9216H283.644ZM298.52 37.5392H298.581C300.04 37.1745 300.79 36.4451 300.83 35.351C300.83 34.9458 300.648 34.5608 300.283 34.1961C299.959 33.8314 298.682 32.9601 296.454 31.5824C294.59 30.4072 293.232 29.4144 292.381 28.6039C291.206 27.4693 290.132 25.9294 289.16 23.9843C287.903 21.4314 287.275 18.8379 287.275 16.2039C287.275 12.3948 288.775 8.99085 291.773 5.99216C295.096 2.66928 299.067 1.00784 303.687 1.00784C306.361 1.00784 308.773 1.63595 310.92 2.89216C312.258 3.70261 313.696 5.20196 315.236 7.39019C315.884 8.36274 316.229 9.27451 316.269 10.1255C316.31 11.1386 315.824 12.3745 314.81 13.8333L314.871 13.8941C313.575 15.7176 312.217 16.6294 310.799 16.6294C310.312 16.6294 309.644 16.5281 308.793 16.3255C307.496 16.0013 306.746 14.8667 306.544 12.9216C306.463 12.1516 305.875 11.7667 304.781 11.7667C304.214 11.7667 303.707 11.9085 303.261 12.1922C302.816 13.0026 302.593 13.8131 302.593 14.6235C302.593 16.0013 303.241 17.1562 304.538 18.0882C309.32 21.4922 312.136 23.5993 312.987 24.4098C316.026 27.2869 317.647 30.3059 317.85 33.4667C317.89 34.2366 317.951 35.2699 318.032 36.5667C318.113 41.7941 314.973 45.8667 308.61 48.7843C306.22 49.8784 303.95 50.4255 301.803 50.4255C301.478 50.4255 301.033 50.385 300.465 50.3039L300.344 50.2431C292.563 48.9869 288.369 46.049 287.761 41.4294C287.599 40.3758 287.478 39.6464 287.397 39.2412C287.356 38.7954 287.336 38.6536 287.336 38.8157C287.336 37.7216 287.66 36.7693 288.309 35.9588C288.957 35.1484 289.686 34.7431 290.497 34.7431C290.861 34.7431 291.935 35.2294 293.718 36.202C295.501 37.134 296.737 37.6 297.426 37.6C297.71 37.6 298.054 37.5595 298.46 37.4784L298.52 37.5392Z" fill="url(#paint0_linear_587_2329)"/>
<defs>
<linearGradient id="paint0_linear_587_2329" x1="159" y1="-14" x2="159" y2="73" gradientUnits="userSpaceOnUse">
<stop stop-color="#94FADD"/>
<stop offset="1" stop-color="#0FFBFB"/>
</linearGradient>
</defs>
</svg>
