<svg width="275" height="50" viewBox="0 0 275 50" fill="none" xmlns="http://www.w3.org/2000/svg">
<path d="M43.9674 40.8549C43.9674 42.9621 43.5419 44.6033 42.6909 45.7784C42.002 46.7105 41.1105 47.3183 40.0164 47.602C39.4491 47.7641 38.6183 47.9667 37.5242 48.2098C36.6732 48.4124 36.1262 48.5137 35.883 48.5137C34.1406 48.5137 32.6615 47.7438 31.4458 46.2039C30.2301 44.6235 29.6223 42.6784 29.6223 40.3686C29.6223 39.4771 29.8451 37.4105 30.2909 34.1686C30.6556 31.6562 30.6759 29.6706 30.3517 28.2118C30.1491 28.8196 29.5209 30.6634 28.4674 33.7431C27.0896 37.6333 25.8536 40.0039 24.7595 40.8549C24.1517 41.3412 23.4223 41.5843 22.5713 41.5843C21.9229 41.5843 21.2543 41.3614 20.5654 40.9157C18.3772 38.6464 16.6752 34.2497 15.4595 27.7255C15.2569 28.7386 15.1556 29.7719 15.1556 30.8255C15.1556 31.4333 15.3177 33.3582 15.6419 36.6C15.885 38.9098 15.885 40.7536 15.6419 42.1314C15.3177 43.9144 14.4464 45.4948 13.0281 46.8725C11.6098 47.683 10.2523 48.0882 8.95559 48.0882C7.17258 48.0882 5.5314 47.298 4.03206 45.7176C2.37062 42.881 1.39807 40.9967 1.11441 40.0647C0.506568 38.2412 0.202646 35.5059 0.202646 31.8588C0.202646 28.4954 0.486307 22.5386 1.05363 13.9882C1.25624 11.0301 2.14774 8.51764 3.72814 6.45098C5.34905 4.34379 7.51703 2.90523 10.2321 2.13529C15.6216 1.9732 19.7144 6.61307 22.5105 16.0549C22.7131 14.3124 23.3412 12.0026 24.3948 9.12549C25.9347 4.91111 27.6772 2.33791 29.6223 1.40588C31.5268 0.838559 33.1477 0.554898 34.485 0.554898C36.7138 0.554898 38.4157 1.24379 39.5909 2.62157C41.1308 4.03987 42.2046 5.8634 42.8125 8.09215C43.2177 9.5915 43.4811 11.9824 43.6027 15.2647C43.6432 18.2634 43.6837 21.2621 43.7242 24.2608C43.8863 30.9065 43.9674 36.4176 43.9674 40.7941V40.8549ZM82.134 38.302L82.1948 38.3627C81.1412 41.6451 79.2771 44.2386 76.6026 46.1431C73.9686 48.0477 70.9091 49 67.4242 49C60.981 49 55.9764 46.5686 52.4104 41.7059C49.3712 37.5725 47.8516 32.5477 47.8516 26.6314C47.8516 23.9163 48.0947 21.4039 48.581 19.0941C50.8098 8.51764 55.5307 2.56078 62.7438 1.22353C63.3921 1.10196 64.081 1.04117 64.8104 1.04117C68.0523 1.04117 71.1928 2.11503 74.232 4.26274C77.3117 6.41046 79.3784 9.02418 80.432 12.1039C82.7013 18.7902 83.8359 23.9974 83.8359 27.7255C83.8359 30.8863 83.2483 34.4118 82.0732 38.302H82.134ZM67.0595 33.9255V33.8647C68.2346 33.6621 68.8222 31.4131 68.8222 27.1176C68.8222 24.6458 68.5993 22.3765 68.1536 20.3098C67.7078 18.2026 67.2215 17.1085 66.6948 17.0274C65.8032 16.7843 64.9928 17.7569 64.2634 19.9451C63.534 22.1333 63.1693 24.5444 63.1693 27.1784C63.1693 32.0817 64.466 34.3307 67.0595 33.9255ZM131.518 40.8549C131.518 42.9621 131.093 44.6033 130.242 45.7784C129.553 46.7105 128.661 47.3183 127.567 47.602C127 47.7641 126.169 47.9667 125.075 48.2098C124.224 48.4124 123.677 48.5137 123.434 48.5137C121.691 48.5137 120.212 47.7438 118.997 46.2039C117.781 44.6235 117.173 42.6784 117.173 40.3686C117.173 39.4771 117.396 37.4105 117.842 34.1686C118.206 31.6562 118.227 29.6706 117.902 28.2118C117.7 28.8196 117.072 30.6634 116.018 33.7431C114.64 37.6333 113.404 40.0039 112.31 40.8549C111.702 41.3412 110.973 41.5843 110.122 41.5843C109.474 41.5843 108.805 41.3614 108.116 40.9157C105.928 38.6464 104.226 34.2497 103.01 27.7255C102.808 28.7386 102.706 29.7719 102.706 30.8255C102.706 31.4333 102.868 33.3582 103.193 36.6C103.436 38.9098 103.436 40.7536 103.193 42.1314C102.868 43.9144 101.997 45.4948 100.579 46.8725C99.1606 47.683 97.8031 48.0882 96.5064 48.0882C94.7234 48.0882 93.0822 47.298 91.5828 45.7176C89.9214 42.881 88.9489 40.9967 88.6652 40.0647C88.0573 38.2412 87.7534 35.5059 87.7534 31.8588C87.7534 28.4954 88.0371 22.5386 88.6044 13.9882C88.807 11.0301 89.6985 8.51764 91.2789 6.45098C92.8998 4.34379 95.0678 2.90523 97.7828 2.13529C103.172 1.9732 107.265 6.61307 110.061 16.0549C110.264 14.3124 110.892 12.0026 111.946 9.12549C113.485 4.91111 115.228 2.33791 117.173 1.40588C119.078 0.838559 120.699 0.554898 122.036 0.554898C124.265 0.554898 125.967 1.24379 127.142 2.62157C128.682 4.03987 129.755 5.8634 130.363 8.09215C130.768 9.5915 131.032 11.9824 131.153 15.2647C131.194 18.2634 131.234 21.2621 131.275 24.2608C131.437 30.9065 131.518 36.4176 131.518 40.7941V40.8549ZM162.695 19.4588C162.857 20.0667 162.917 20.6948 162.877 21.3431C162.877 23.4908 162.006 25.2941 160.263 26.7529C158.683 28.1307 156.981 28.7183 155.157 28.5157C154.833 28.3941 154.225 28.3739 153.334 28.4549C153.415 28.9412 153.273 30.2379 152.908 32.3451C152.908 33.3176 153.334 34.0471 154.185 34.5333C155.846 34.0876 157.204 34.0876 158.257 34.5333C159.919 35.1817 160.831 36.2758 160.993 37.8157C161.195 39.5582 160.689 41.3412 159.473 43.1647C158.257 44.9477 156.576 46.4471 154.428 47.6627C152.523 48.7569 150.274 49.3039 147.681 49.3039C145.412 49.3039 143.365 48.8784 141.542 48.0275C140.772 47.6627 139.617 46.5281 138.077 44.6235C136.415 41.868 135.564 36.0529 135.524 27.1784C135.483 22.0725 135.909 16.2373 136.8 9.67255C137.327 5.8634 138.421 3.3915 140.083 2.25686L150.234 1.22353C151.976 0.858821 153.638 0.676469 155.218 0.676469C158.379 0.676469 160.243 1.46667 160.81 3.04706C161.053 3.69542 161.175 4.42484 161.175 5.23529C161.175 6.97777 160.527 8.39607 159.23 9.49019C157.933 10.5843 156.13 11.1314 153.82 11.1314C153.253 11.1314 152.807 11.1111 152.483 11.0706C152.199 11.6784 152.037 12.651 151.997 13.9882C151.915 15.6902 151.855 16.6627 151.814 16.9059C151.936 17.4732 152.361 17.8379 153.091 18C154.266 17.068 155.745 16.602 157.528 16.602C159.595 16.602 161.317 17.5542 162.695 19.4588ZM202.508 13.1373V13.0765C202.913 17.7771 203.115 22.2144 203.115 26.3882C203.115 39.234 200.988 46.4471 196.733 48.0275C196.085 48.2706 195.335 48.3922 194.484 48.3922C193.471 48.3922 192.154 48.1895 190.533 47.7843C188.507 46.6497 185.407 40.1458 181.233 28.2725C181.962 31.3928 182.327 34.4725 182.327 37.5118C182.327 40.8752 181.841 43.5497 180.868 45.5353C180.423 46.4673 179.612 47.2778 178.437 47.9667C177.302 48.615 176.208 48.8784 175.155 48.7569C171.791 48.4327 169.502 46.3863 168.286 42.6176C167.476 40.1052 167.07 36.215 167.07 30.9471C167.07 20.6948 167.496 13.8059 168.347 10.2804C168.995 7.6464 170.474 5.47843 172.784 3.77647C174.121 2.80392 175.621 2.31764 177.282 2.31764C178.174 2.31764 179.065 2.45947 179.957 2.74313C182.307 3.99934 184.617 7.74771 186.886 13.9882C187.818 16.5007 188.689 19.4791 189.5 22.9235C189.094 20.249 188.75 17.8987 188.466 15.8725C187.98 12.3065 187.737 9.69281 187.737 8.03137C187.737 6.04575 188.264 4.40457 189.317 3.10784C190.533 1.60849 192.255 0.858819 194.484 0.858819C198.415 0.858819 200.866 3.04706 201.839 7.42353C202.042 8.35555 202.264 10.2601 202.508 13.1373ZM240.764 8.63921H240.825C240.947 9.24706 241.007 10.0373 241.007 11.0098C240.967 13.0359 240.481 14.5758 239.548 15.6294C239.184 16.0346 237.543 16.5209 234.625 17.0882C231.748 17.615 230.269 17.9595 230.188 18.1216C230.107 18.5673 230.573 22.802 231.586 30.8255C231.788 32.4464 231.89 34.0673 231.89 35.6882C231.89 39.3758 231.403 42.415 230.431 44.8059C229.215 47.8046 227.432 49.2634 225.082 49.1824C221.273 49.0608 218.618 47.8654 217.119 45.5961C215.984 43.8941 215.397 41.1993 215.356 37.5118C215.356 37.8359 215.437 35.7085 215.599 31.1294L215.903 23.349C216.065 20.9176 216.329 18.8105 216.694 17.0274C216.45 17.1085 216.086 17.149 215.599 17.149C214.222 17.149 212.844 16.9261 211.466 16.4804C209.602 15.8725 208.326 14.981 207.637 13.8059C206.664 12.1444 206.178 10.5843 206.178 9.12549C206.178 6.69412 207.515 4.8098 210.19 3.47255C213.634 1.73006 217.788 0.858819 222.65 0.858819C225.203 0.858819 227.878 1.10196 230.674 1.58823C232.011 2.07451 234.037 2.82418 236.752 3.83725C239.022 5.01242 240.359 6.61307 240.764 8.63921ZM254.723 36.5392H254.784C256.243 36.1745 256.993 35.4451 257.033 34.351C257.033 33.9458 256.851 33.5608 256.486 33.1961C256.162 32.8314 254.886 31.9601 252.657 30.5824C250.793 29.4072 249.435 28.4144 248.584 27.6039C247.409 26.4693 246.335 24.9294 245.363 22.9843C244.106 20.4314 243.478 17.8379 243.478 15.2039C243.478 11.3948 244.978 7.99085 247.976 4.99216C251.299 1.66928 255.27 0.00784051 259.89 0.00784051C262.565 0.00784051 264.976 0.635945 267.123 1.89216C268.461 2.70261 269.899 4.20196 271.439 6.39019C272.087 7.36274 272.432 8.27451 272.472 9.12549C272.513 10.1386 272.027 11.3745 271.014 12.8333L271.074 12.8941C269.778 14.7176 268.42 15.6294 267.002 15.6294C266.516 15.6294 265.847 15.5281 264.996 15.3255C263.699 15.0013 262.95 13.8667 262.747 11.9216C262.666 11.1516 262.078 10.7667 260.984 10.7667C260.417 10.7667 259.91 10.9085 259.465 11.1922C259.019 12.0026 258.796 12.8131 258.796 13.6235C258.796 15.0013 259.444 16.1562 260.741 17.0882C265.523 20.4922 268.339 22.5993 269.19 23.4098C272.229 26.2869 273.85 29.3059 274.053 32.4667C274.093 33.2366 274.154 34.2699 274.235 35.5667C274.316 40.7941 271.176 44.8667 264.814 47.7843C262.423 48.8784 260.153 49.4255 258.006 49.4255C257.682 49.4255 257.236 49.385 256.669 49.3039L256.547 49.2431C248.767 47.9869 244.572 45.049 243.965 40.4294C243.803 39.3758 243.681 38.6464 243.6 38.2412C243.559 37.7954 243.539 37.6536 243.539 37.8157C243.539 36.7216 243.863 35.7693 244.512 34.9588C245.16 34.1484 245.889 33.7431 246.7 33.7431C247.065 33.7431 248.138 34.2294 249.921 35.202C251.704 36.134 252.94 36.6 253.629 36.6C253.913 36.6 254.257 36.5595 254.663 36.4784L254.723 36.5392Z" fill="url(#paint0_linear_587_2493)"/>
<defs>
<linearGradient id="paint0_linear_587_2493" x1="137" y1="-15" x2="137" y2="72" gradientUnits="userSpaceOnUse">
<stop stop-color="#FFD8E2"/>
<stop offset="1" stop-color="#FF7A63"/>
</linearGradient>
</defs>
</svg>
