<svg width="62" height="62" viewBox="0 0 62 62" fill="none" xmlns="http://www.w3.org/2000/svg">
<path d="M32.5496 21.262L31.2525 22.6607C31.071 22.856 30.9746 23.1155 30.9844 23.382C30.9942 23.6484 31.1095 23.9001 31.3048 24.0816L36.4939 28.8968L19.6495 28.8968C19.2007 28.8968 18.7702 29.0751 18.4528 29.3925C18.1353 29.7099 17.957 30.1404 17.957 30.5893L17.957 31.2209C17.957 31.4432 18.0008 31.6633 18.0859 31.8686C18.1709 32.074 18.2956 32.2606 18.4528 32.4177C18.6099 32.5749 18.7965 32.6996 19.0018 32.7846C19.2072 32.8697 19.4273 32.9135 19.6495 32.9135L36.6939 32.9135L31.3048 37.9141C31.1095 38.0961 30.9943 38.3481 30.9845 38.6149C30.9747 38.8817 31.0711 39.1415 31.2525 39.3373L32.5496 40.7359C32.7315 40.9317 32.9837 41.0471 33.2508 41.0569C33.5178 41.0667 33.7778 40.9701 33.9736 40.7883L41.9746 33.3635L43.6671 31.7949L43.7748 31.6779C43.8291 31.6188 43.8766 31.5537 43.9164 31.484C43.9541 31.4144 43.9843 31.3409 44.0064 31.2648C44.0162 31.2435 44.0214 31.2205 44.0218 31.1971C44.0299 31.1669 44.035 31.136 44.0372 31.1048C44.0407 31.0752 44.0428 31.0454 44.0433 31.0155L44.0433 30.9863C44.0428 30.9565 44.0407 30.9267 44.0372 30.8971C44.0353 30.8635 44.0301 30.8303 44.0218 30.7978C44.0181 30.7736 44.012 30.7499 44.0033 30.727C43.9941 30.6901 43.9787 30.6563 43.9664 30.6193L43.9287 30.5424C43.887 30.4633 43.8353 30.3898 43.7748 30.3239L43.6671 30.2062L41.9746 28.6352L33.9736 21.2128C33.7781 21.0308 33.5184 20.9337 33.2514 20.9429C32.9844 20.9522 32.732 21.0669 32.5496 21.262Z" fill="white"/>
<path d="M59.4445 30.9999C59.4445 15.2905 46.7095 2.5555 31.0001 2.5555C15.2907 2.5555 2.55566 15.2905 2.55566 30.9999C2.55566 46.7093 15.2907 59.4443 31.0001 59.4443C46.7095 59.4443 59.4445 46.7093 59.4445 30.9999Z" stroke="white" stroke-width="5" stroke-miterlimit="10"/>
</svg>
