<svg width="173" height="51" viewBox="0 0 173 51" fill="none" xmlns="http://www.w3.org/2000/svg">
<path d="M31.7255 8.66667L31.6647 8.72745C33.8124 12.0503 34.8862 15.4542 34.8862 18.9392C34.8862 22.7078 33.6503 26.2333 31.1784 29.5157C29.1117 32.2712 24.5732 34.1961 17.5627 35.2902C17.4817 36.0601 17.5627 37.2961 17.8058 38.998C18.13 40.8216 18.2921 41.8549 18.2921 42.098C18.2921 43.5569 17.8869 45.1373 17.0764 46.8392C16.6712 47.6902 15.8202 48.3993 14.5235 48.9667C13.2673 49.534 11.849 49.8176 10.2686 49.8176C7.91826 49.8176 6.03395 49.1895 4.61565 47.9333C3.23787 46.6366 2.4882 44.8536 2.36663 42.5843C1.4346 38.6131 0.988851 34.4392 1.02937 30.0627V17.0549C1.02937 16.6902 1.11042 15.1908 1.27251 12.5569C1.4346 10.166 1.83983 8.16013 2.4882 6.53921C3.33918 4.43202 4.55486 3.17581 6.13526 2.77058C9.78232 1.83856 13.0849 1.37254 16.0431 1.37254C23.2156 1.37254 28.4228 3.80392 31.6647 8.66667H31.7255ZM19.9941 19.6686C20.4804 18.6961 20.7235 17.7641 20.7235 16.8725C20.7235 14.6033 19.2444 13.3471 16.2862 13.1039C16.0836 14.8059 15.9823 16.1026 15.9823 16.9941C15.9823 18.2503 16.0026 19.1824 16.0431 19.7902C16.1241 20.7222 16.2255 22.0797 16.347 23.8627C16.7117 23.5386 17.1777 23.0725 17.7451 22.4647C18.7987 21.4111 19.5281 20.4588 19.9333 19.6078L19.9941 19.6686ZM71.2813 44.651V44.7118C70.9166 46.6569 69.7212 47.8725 67.695 48.3588C66.682 48.602 65.6284 48.7235 64.5343 48.7235C62.5486 48.7235 60.9277 48.2575 59.6715 47.3255C58.78 46.1503 58.2532 45.3804 58.0911 45.0157C57.5643 43.9621 57.3009 42.6046 57.3009 40.9431C55.68 40.8621 53.8362 40.9431 51.7696 41.1863C51.8506 41.551 51.9316 42.098 52.0127 42.8275C52.0127 44.4889 51.5467 46.2111 50.6147 47.9941C49.4395 49.6556 47.7173 50.4863 45.448 50.4863C44.3539 50.4863 42.9964 50.2837 41.3754 49.8784L41.2539 49.7569C37.8094 48.0549 36.0872 43.8203 36.0872 37.0529C36.0872 36.6072 36.1277 35.5536 36.2088 33.8922C36.533 27.5301 37.1205 22.5457 37.9715 18.9392C39.1872 13.8333 41.3349 9.25425 44.4147 5.20196C46.8055 2.0817 50.2702 0.521566 54.8088 0.521566C59.6715 0.521566 63.3388 2.04117 65.8107 5.08039C67.2696 6.8634 68.3029 8.95032 68.9107 11.3412C71.1395 19.8915 72.2539 27.4085 72.2539 33.8922C72.2539 37.7013 71.9297 41.2876 71.2813 44.651ZM55.9029 28.7255C56.1865 25.4431 55.9839 20.317 55.295 13.3471C55.0114 13.0634 54.5859 13.1647 54.0186 13.651C53.4918 17.0954 53.1068 19.8915 52.8637 22.0392C52.4584 25.8078 52.3166 27.9556 52.4382 28.4824C52.6408 28.9281 52.9852 29.151 53.4715 29.151C53.6336 29.151 54.0388 29.0902 54.6872 28.9686C55.3761 28.8065 55.7813 28.7255 55.9029 28.7255ZM107.231 12.9216C107.352 13.6105 107.413 14.2993 107.413 14.9882C107.413 17.1765 106.967 18.8784 106.076 20.0941C104.698 21.9987 102.631 22.8902 99.8758 22.7686C97.3634 22.6471 95.6817 21.4719 94.8307 19.2431V17.5412C94.8307 17.0144 94.6281 16.5889 94.2229 16.2647L93.8582 16.3255C91.2647 22.8902 89.968 28.4013 89.968 32.8588C89.968 34.3582 89.9477 34.885 89.9072 34.4392C89.9477 35.0065 90.2922 35.6144 90.9405 36.2627C92.7235 36.1007 93.8379 35.5536 94.2837 34.6216C94.4863 34.0542 94.2634 33.5274 93.615 33.0412C92.9667 32.9601 92.5614 32.8386 92.3994 32.6765C91.9536 32.4739 91.7105 32.1497 91.6699 31.7039C91.5889 30.6908 91.8928 29.5967 92.5817 28.4216L94.1013 27.2059C94.5065 27.2059 95.5601 27.1451 97.2621 27.0235C99.0046 26.8614 100.159 26.7804 100.727 26.7804C103.077 26.7804 104.84 27.368 106.015 28.5431C106.785 29.6778 107.17 31.1974 107.17 33.102C107.17 35.3307 106.724 37.6203 105.833 39.9706C104.86 42.5641 103.482 44.7523 101.699 46.5353C99.6732 48.5614 97.4242 49.7366 94.9523 50.0608C93.6961 50.2229 92.602 50.3039 91.6699 50.3039C88.1039 50.3039 84.9229 49.149 82.1268 46.8392C80.1817 45.2183 78.6621 42.7869 77.568 39.5451C76.4739 36.3033 75.9268 32.6359 75.9268 28.5431C75.9268 22.9915 76.8386 17.8856 78.6621 13.2255C80.4856 8.56536 82.9373 5.22222 86.017 3.19608C88.1242 2.10196 90.4948 1.5549 93.1288 1.5549C95.4386 1.5549 97.566 2.02091 99.5111 2.95294C104.252 6.19477 106.785 9.51764 107.109 12.9216H107.231ZM138.215 20.4588C138.377 21.0667 138.438 21.6948 138.397 22.3431C138.397 24.4908 137.526 26.2941 135.784 27.7529C134.203 29.1307 132.501 29.7183 130.678 29.5157C130.354 29.3941 129.746 29.3739 128.854 29.4549C128.935 29.9412 128.793 31.2379 128.429 33.3451C128.429 34.3176 128.854 35.0471 129.705 35.5333C131.367 35.0876 132.724 35.0876 133.778 35.5333C135.439 36.1817 136.351 37.2758 136.513 38.8157C136.716 40.5582 136.209 42.3412 134.993 44.1647C133.778 45.9477 132.096 47.4471 129.948 48.6627C128.044 49.7569 125.795 50.3039 123.201 50.3039C120.932 50.3039 118.886 49.8784 117.062 49.0275C116.292 48.6627 115.137 47.5281 113.597 45.6235C111.936 42.868 111.085 37.0529 111.044 28.1784C111.004 23.0725 111.429 17.2373 112.321 10.6725C112.848 6.8634 113.942 4.3915 115.603 3.25686L125.754 2.22353C127.497 1.85882 129.158 1.67647 130.739 1.67647C133.899 1.67647 135.763 2.46667 136.331 4.04706C136.574 4.69542 136.695 5.42484 136.695 6.23529C136.695 7.97777 136.047 9.39607 134.75 10.4902C133.454 11.5843 131.65 12.1314 129.341 12.1314C128.773 12.1314 128.327 12.1111 128.003 12.0706C127.72 12.6784 127.558 13.651 127.517 14.9882C127.436 16.6902 127.375 17.6627 127.335 17.9059C127.456 18.4732 127.882 18.8379 128.611 19C129.786 18.068 131.265 17.602 133.048 17.602C135.115 17.602 136.837 18.5542 138.215 20.4588ZM153.289 37.5392H153.35C154.808 37.1745 155.558 36.4451 155.599 35.351C155.599 34.9458 155.416 34.5608 155.052 34.1961C154.727 33.8314 153.451 32.9601 151.222 31.5824C149.358 30.4072 148.001 29.4144 147.15 28.6039C145.974 27.4693 144.901 25.9294 143.928 23.9843C142.672 21.4314 142.044 18.8379 142.044 16.2039C142.044 12.3948 143.543 8.99085 146.542 5.99216C149.865 2.66928 153.836 1.00784 158.456 1.00784C161.13 1.00784 163.541 1.63595 165.689 2.89216C167.026 3.70261 168.465 5.20196 170.005 7.39019C170.653 8.36274 170.997 9.27451 171.038 10.1255C171.078 11.1386 170.592 12.3745 169.579 13.8333L169.64 13.8941C168.343 15.7176 166.986 16.6294 165.567 16.6294C165.081 16.6294 164.412 16.5281 163.561 16.3255C162.265 16.0013 161.515 14.8667 161.312 12.9216C161.231 12.1516 160.644 11.7667 159.55 11.7667C158.982 11.7667 158.476 11.9085 158.03 12.1922C157.584 13.0026 157.361 13.8131 157.361 14.6235C157.361 16.0013 158.01 17.1562 159.307 18.0882C164.088 21.4922 166.905 23.5993 167.756 24.4098C170.795 27.2869 172.416 30.3059 172.618 33.4667C172.659 34.2366 172.72 35.2699 172.801 36.5667C172.882 41.7941 169.741 45.8667 163.379 48.7843C160.988 49.8784 158.719 50.4255 156.571 50.4255C156.247 50.4255 155.801 50.385 155.234 50.3039L155.112 50.2431C147.332 48.9869 143.138 46.049 142.53 41.4294C142.368 40.3758 142.246 39.6464 142.165 39.2412C142.125 38.7954 142.105 38.6536 142.105 38.8157C142.105 37.7216 142.429 36.7693 143.077 35.9588C143.725 35.1484 144.455 34.7431 145.265 34.7431C145.63 34.7431 146.704 35.2294 148.487 36.202C150.27 37.134 151.506 37.6 152.195 37.6C152.478 37.6 152.823 37.5595 153.228 37.4784L153.289 37.5392Z" fill="url(#paint0_linear_587_2380)"/>
<defs>
<linearGradient id="paint0_linear_587_2380" x1="87" y1="-14" x2="87" y2="73" gradientUnits="userSpaceOnUse">
<stop stop-color="#8C39F2"/>
<stop offset="1" stop-color="#EE2AED"/>
</linearGradient>
</defs>
</svg>
