<svg width="342" height="69" viewBox="0 0 342 69" fill="none" xmlns="http://www.w3.org/2000/svg">
<g filter="url(#filter0_d_667_2511)">
<path d="M13.5605 41.152H13.6085C14.7615 40.8637 15.3539 40.2873 15.386 39.4225C15.386 39.1023 15.2419 38.798 14.9536 38.5098C14.6974 38.2216 13.6886 37.533 11.9271 36.4441C10.4539 35.5154 9.38107 34.7307 8.70852 34.0902C7.77976 33.1935 6.93107 31.9765 6.16244 30.4392C5.16963 28.4216 4.67322 26.3719 4.67322 24.2902C4.67322 21.2797 5.85819 18.5895 8.22813 16.2196C10.8543 13.5935 13.9928 12.2804 17.6438 12.2804C19.7575 12.2804 21.6631 12.7768 23.3605 13.7696C24.4173 14.4101 25.5543 15.5951 26.7713 17.3245C27.2837 18.0931 27.5559 18.8137 27.5879 19.4863C27.62 20.2869 27.2356 21.2637 26.435 22.4167L26.483 22.4647C25.4582 23.9059 24.3853 24.6265 23.2644 24.6265C22.8801 24.6265 22.3517 24.5464 21.6791 24.3863C20.6543 24.1301 20.0618 23.2333 19.9017 21.6961C19.8376 21.0876 19.3732 20.7833 18.5085 20.7833C18.0602 20.7833 17.6598 20.8954 17.3075 21.1196C16.9553 21.7601 16.7791 22.4007 16.7791 23.0412C16.7791 24.1301 17.2915 25.0428 18.3164 25.7794C22.0954 28.4696 24.3213 30.135 24.9938 30.7755C27.3958 33.0493 28.6768 35.4353 28.837 37.9333C28.869 38.5418 28.917 39.3585 28.9811 40.3833C29.0451 44.5147 26.5631 47.7333 21.535 50.0392C19.6454 50.9039 17.852 51.3363 16.1546 51.3363C15.8984 51.3363 15.5461 51.3042 15.0977 51.2402L15.0017 51.1922C8.85264 50.1993 5.53793 47.8775 5.05754 44.2265C4.92943 43.3938 4.83335 42.8173 4.7693 42.4971C4.73728 42.1448 4.72126 42.0327 4.72126 42.1608C4.72126 41.2961 4.97747 40.5435 5.48989 39.9029C6.00231 39.2624 6.57878 38.9422 7.2193 38.9422C7.50754 38.9422 8.35623 39.3265 9.76538 40.0951C11.1745 40.8317 12.1513 41.2 12.6958 41.2C12.92 41.2 13.1922 41.168 13.5124 41.1039L13.5605 41.152ZM33.3909 15.9314H33.3429C34.752 14.5222 36.5295 13.8176 38.6752 13.8176C40.4687 13.8176 41.7818 14.0578 42.6144 14.5382C43.5432 15.467 44.0396 16.9242 44.1037 18.9098C43.9115 20.4791 43.7674 22.5768 43.6713 25.2029C44.0556 26.6121 44.6321 27.3167 45.4007 27.3167C45.689 27.3167 46.1373 27.1725 46.7458 26.8843C47.0981 26.7242 47.3703 26.0676 47.5625 24.9147C47.3703 23.2493 47.2422 20.9595 47.1782 18.0451C47.3063 16.3797 48.3631 14.9386 50.3488 13.7216C50.7331 13.4974 51.6778 13.3533 53.1831 13.2892C54.304 13.2572 55.0566 13.2892 55.4409 13.3853C56.8821 13.7696 57.8429 14.8585 58.3233 16.652C58.4834 17.1964 58.6595 17.7408 58.8517 18.2853C59.1399 19.3422 59.3001 20.415 59.3321 21.5039C59.5243 25.9876 59.6203 29.3503 59.6203 31.5922C59.6203 36.332 58.8037 41.5523 57.1703 47.2529C56.6579 49.0144 55.2488 50.1353 52.9429 50.6157C51.4697 50.9359 50.2847 50.7918 49.388 50.1833C48.171 49.3827 47.4664 48.0536 47.2743 46.1961C47.2102 45.6837 47.2262 44.7709 47.3223 43.4578C47.4504 42.1448 47.4984 41.232 47.4664 40.7196C47.2743 39.919 46.7618 39.5186 45.9292 39.5186C45.1285 39.5186 44.4079 39.8229 43.7674 40.4314C43.1589 41.0399 42.8707 41.8245 42.9027 42.7853C43.0628 43.4258 43.287 44.5627 43.5752 46.1961C43.7354 47.285 43.6873 48.1176 43.4311 48.6941C43.0468 49.5588 42.4223 50.1833 41.5576 50.5676C40.9811 50.8239 39.9243 50.952 38.387 50.952C36.9138 50.952 35.6968 50.4395 34.736 49.4147C33.9354 48.55 33.2628 47.1248 32.7184 45.1392C32.0778 42.9294 31.7256 40.4794 31.6615 37.7892C31.5654 33.9141 31.5174 30.5993 31.5174 27.8451C31.5174 21.7281 32.1419 17.7569 33.3909 15.9314ZM90.1016 46.7725V46.8206C89.8134 48.3578 88.8686 49.3186 87.2673 49.7029C86.4666 49.8951 85.6339 49.9912 84.7692 49.9912C83.2 49.9912 81.9189 49.6229 80.9261 48.8863C80.2215 47.9575 79.8052 47.349 79.6771 47.0608C79.2607 46.2281 79.0526 45.1552 79.0526 43.8422C77.7715 43.7781 76.3143 43.8422 74.681 44.0343C74.7451 44.3225 74.8091 44.7549 74.8732 45.3314C74.8732 46.6444 74.5049 48.0056 73.7683 49.4147C72.8395 50.7278 71.4784 51.3843 69.6849 51.3843C68.8202 51.3843 67.7473 51.2242 66.4663 50.9039L66.3702 50.8078C63.648 49.4627 62.2869 46.116 62.2869 40.7676C62.2869 40.4154 62.3189 39.5827 62.383 38.2696C62.6392 33.2415 63.1035 29.3023 63.7761 26.452C64.7369 22.4167 66.4343 18.7977 68.8683 15.5951C70.7578 13.1291 73.496 11.8961 77.083 11.8961C80.9261 11.8961 83.8245 13.0971 85.7781 15.499C86.931 16.9082 87.7477 18.5575 88.2281 20.4471C89.9895 27.2046 90.8702 33.1454 90.8702 38.2696C90.8702 41.2801 90.614 44.1144 90.1016 46.7725ZM77.9477 34.1863C78.1718 31.5922 78.0117 27.5408 77.4673 22.0324C77.2431 21.8082 76.9068 21.8882 76.4584 22.2725C76.0421 24.9948 75.7379 27.2046 75.5457 28.902C75.2254 31.8804 75.1134 33.5778 75.2094 33.9941C75.3696 34.3464 75.6418 34.5225 76.0261 34.5225C76.1542 34.5225 76.4745 34.4745 76.9869 34.3784C77.5313 34.2503 77.8516 34.1863 77.9477 34.1863ZM121.155 45.9078H121.107C120.659 46.8686 119.906 47.8454 118.849 48.8382C117.472 50.0873 116.079 50.7918 114.67 50.952C111.948 51.2402 109.162 48.4699 106.311 42.6412C106.407 43.4739 106.455 44.1944 106.455 44.8029C106.455 46.7886 105.975 48.3578 105.014 49.5108C103.541 50.5356 102.068 51.048 100.595 51.048C99.9541 51.048 99.3776 50.984 98.8652 50.8559C96.9756 50.3755 95.7426 49.767 95.1662 49.0304C94.3975 48.0696 94.0132 46.3402 94.0132 43.8422V41.9206C93.9171 41.8245 93.9492 38.9582 94.1093 33.3216C94.3015 26.9484 94.6698 22.0964 95.2142 18.7657C95.6305 16.3637 97.3279 14.7144 100.306 13.8176C101.716 13.4013 104.486 12.985 108.617 12.5686C113.517 12.7288 116.88 14.3621 118.705 17.4686C120.082 20.5752 120.755 23.4255 120.723 26.0196C120.691 28.6778 119.97 30.9036 118.561 32.6971C118.337 32.9853 117.424 33.834 115.823 35.2431C119.442 39.1503 121.251 42.417 121.251 45.0431C121.251 45.2353 121.219 45.5235 121.155 45.9078ZM107.416 23.5216H107.368C107.176 23.4575 107.016 23.4255 106.888 23.4255C106.76 23.4255 106.263 23.6497 105.399 24.098C105.27 24.2261 105.222 25.0428 105.254 26.548C105.286 28.3095 105.302 29.9748 105.302 31.5441C106.519 31.1278 107.544 30.5353 108.377 29.7667C109.242 28.966 109.674 28.1333 109.674 27.2686C109.674 26.0837 108.921 24.8346 107.416 23.5216ZM145.776 27.6529C145.904 28.1333 145.952 28.6297 145.92 29.1422C145.92 30.8395 145.232 32.2647 143.855 33.4176C142.606 34.5065 141.261 34.9709 139.819 34.8108C139.563 34.7147 139.083 34.6987 138.378 34.7627C138.442 35.1471 138.33 36.1719 138.042 37.8373C138.042 38.6059 138.378 39.1824 139.051 39.5667C140.364 39.2144 141.437 39.2144 142.269 39.5667C143.582 40.0791 144.303 40.9438 144.431 42.1608C144.591 43.5379 144.191 44.9471 143.23 46.3882C142.269 47.7974 140.94 48.9824 139.243 49.9431C137.738 50.8078 135.96 51.2402 133.911 51.2402C132.117 51.2402 130.5 50.9039 129.059 50.2314C128.45 49.9431 127.537 49.0464 126.32 47.5412C125.007 45.3634 124.335 40.7676 124.303 33.7539C124.271 29.7186 124.607 25.1069 125.312 19.9186C125.728 16.9082 126.593 14.9546 127.906 14.0578L135.928 13.2412C137.305 12.9529 138.618 12.8088 139.867 12.8088C142.365 12.8088 143.839 13.4333 144.287 14.6824C144.479 15.1948 144.575 15.7712 144.575 16.4118C144.575 17.7889 144.063 18.9098 143.038 19.7745C142.013 20.6392 140.588 21.0716 138.762 21.0716C138.314 21.0716 137.962 21.0556 137.706 21.0235C137.481 21.5039 137.353 22.2725 137.321 23.3294C137.257 24.6745 137.209 25.4431 137.177 25.6353C137.273 26.0837 137.61 26.3719 138.186 26.5C139.115 25.7634 140.284 25.3951 141.693 25.3951C143.326 25.3951 144.687 26.1477 145.776 27.6529ZM186.364 18.3333L186.316 18.3814C188.013 21.0075 188.862 23.6977 188.862 26.452C188.862 29.4304 187.885 32.2167 185.932 34.8108C184.298 36.9886 180.711 38.5098 175.171 39.3745C175.107 39.983 175.171 40.9598 175.363 42.3049C175.619 43.7461 175.747 44.5627 175.747 44.7549C175.747 45.9078 175.427 47.1569 174.787 48.502C174.466 49.1745 173.794 49.735 172.769 50.1833C171.776 50.6317 170.655 50.8559 169.406 50.8559C167.549 50.8559 166.06 50.3595 164.939 49.3667C163.85 48.3418 163.257 46.9327 163.161 45.1392C162.425 42.0007 162.072 38.702 162.104 35.2431V24.9627C162.104 24.6745 162.168 23.4895 162.296 21.4078C162.425 19.5183 162.745 17.933 163.257 16.652C163.93 14.9866 164.891 13.9938 166.14 13.6735C169.022 12.9369 171.632 12.5686 173.97 12.5686C179.639 12.5686 183.754 14.4902 186.316 18.3333H186.364ZM177.093 27.0284C177.477 26.2598 177.669 25.5232 177.669 24.8186C177.669 23.0252 176.5 22.0324 174.162 21.8402C174.002 23.1853 173.922 24.2101 173.922 24.9147C173.922 25.9075 173.938 26.6441 173.97 27.1245C174.034 27.8611 174.114 28.934 174.21 30.3431C174.498 30.0869 174.867 29.7186 175.315 29.2382C176.148 28.4056 176.724 27.6529 177.044 26.9804L177.093 27.0284ZM217.146 45.9078H217.098C216.649 46.8686 215.897 47.8454 214.84 48.8382C213.463 50.0873 212.069 50.7918 210.66 50.952C207.938 51.2402 205.152 48.4699 202.301 42.6412C202.398 43.4739 202.446 44.1944 202.446 44.8029C202.446 46.7886 201.965 48.3578 201.004 49.5108C199.531 50.5356 198.058 51.048 196.585 51.048C195.944 51.048 195.368 50.984 194.855 50.8559C192.966 50.3755 191.733 49.767 191.156 49.0304C190.388 48.0696 190.003 46.3402 190.003 43.8422V41.9206C189.907 41.8245 189.939 38.9582 190.1 33.3216C190.292 26.9484 190.66 22.0964 191.204 18.7657C191.621 16.3637 193.318 14.7144 196.297 13.8176C197.706 13.4013 200.476 12.985 204.607 12.5686C209.507 12.7288 212.87 14.3621 214.696 17.4686C216.073 20.5752 216.745 23.4255 216.713 26.0196C216.681 28.6778 215.961 30.9036 214.551 32.6971C214.327 32.9853 213.415 33.834 211.813 35.2431C215.432 39.1503 217.242 42.417 217.242 45.0431C217.242 45.2353 217.21 45.5235 217.146 45.9078ZM203.406 23.5216H203.358C203.166 23.4575 203.006 23.4255 202.878 23.4255C202.75 23.4255 202.253 23.6497 201.389 24.098C201.261 24.2261 201.213 25.0428 201.245 26.548C201.277 28.3095 201.293 29.9748 201.293 31.5441C202.51 31.1278 203.534 30.5353 204.367 29.7667C205.232 28.966 205.664 28.1333 205.664 27.2686C205.664 26.0837 204.912 24.8346 203.406 23.5216ZM247.291 42.5451L247.339 42.5931C246.506 45.1873 245.033 47.2369 242.919 48.7422C240.838 50.2474 238.42 51 235.665 51C230.573 51 226.618 49.0784 223.8 45.2353C221.398 41.9686 220.197 37.9974 220.197 33.3216C220.197 31.1758 220.389 29.1902 220.773 27.3647C222.535 19.0059 226.266 14.298 231.966 13.2412C232.479 13.1451 233.023 13.0971 233.6 13.0971C236.162 13.0971 238.644 13.9457 241.046 15.6431C243.48 17.3405 245.113 19.4062 245.946 21.8402C247.739 27.1245 248.636 31.2399 248.636 34.1863C248.636 36.6843 248.172 39.4706 247.243 42.5451H247.291ZM235.377 39.0863V39.0382C236.306 38.8781 236.77 37.1007 236.77 33.7059C236.77 31.7523 236.594 29.9588 236.242 28.3255C235.89 26.6601 235.505 25.7954 235.089 25.7314C234.384 25.5392 233.744 26.3078 233.167 28.0373C232.591 29.7667 232.303 31.6722 232.303 33.7539C232.303 37.6291 233.328 39.4065 235.377 39.0863ZM271.861 29.9108V29.8627C272.309 30.6954 272.533 31.4641 272.533 32.1686C272.533 32.9693 272.149 33.9941 271.38 35.2431C270.708 36.7484 269.523 37.6931 267.825 38.0774C267.249 38.0774 265.904 38.1895 263.79 38.4137C263.758 38.9902 263.822 40.2072 263.982 42.0647C264.174 44.0824 264.27 45.2673 264.27 45.6196C264.27 49.0464 263.005 50.7598 260.475 50.7598C259.45 50.7598 257.833 50.3755 255.623 49.6069C253.574 47.5252 252.453 44.4346 252.261 40.3353L251.444 24.002C251.54 22.817 251.652 21.0395 251.78 18.6696C252.132 16.652 253.077 15.2748 254.615 14.5382C256.248 13.4814 259.226 12.9529 263.55 12.9529C265.888 12.9529 267.761 13.1771 269.17 13.6255C270.708 14.9706 271.476 16.4118 271.476 17.949C271.476 19.9987 270.724 21.4879 269.218 22.4167C268.994 22.6408 268.114 22.9451 266.576 23.3294C265.167 23.7137 264.382 24.066 264.222 24.3863C264.222 25.1229 264.03 26.1797 263.646 27.5569C263.806 27.717 264.03 27.7971 264.318 27.7971C264.543 27.7971 265.119 27.669 266.048 27.4127C267.009 27.1565 267.569 27.0284 267.729 27.0284C269.459 27.0605 270.836 28.0212 271.861 29.9108ZM289.253 19.3422C289.253 20.6552 289.285 22.2565 289.349 24.1461C289.414 26.0356 289.446 27.2526 289.446 27.7971C289.478 34.1382 289.045 39.8069 288.149 44.8029C287.572 48.0376 286.099 49.9752 283.729 50.6157C283.024 50.6797 282.544 50.7118 282.288 50.7118C279.053 50.7118 277.228 49.2225 276.811 46.2441C276.075 41.1199 275.722 36.4922 275.754 32.3608C275.786 28.0052 276.123 24.1461 276.763 20.7833L278.06 17.5647C279.726 15.1627 282.096 13.9618 285.17 13.9618C285.875 13.9618 286.499 14.0258 287.044 14.1539C287.94 14.5703 288.533 15.3229 288.821 16.4118L289.253 19.3422ZM312.773 43.4578H312.725C312.372 46.2121 311.363 48.0376 309.698 48.9343C307.392 49.8631 305.054 50.3275 302.684 50.3275C295.895 50.3275 292.5 46.6605 292.5 39.3265C292.5 37.4369 292.5 36.4922 292.5 36.4922C292.5 36.1399 292.516 35.5954 292.548 34.8588C292.58 34.2824 292.596 33.866 292.596 33.6098C292.436 27.1405 292.708 21.9683 293.413 18.0931C293.989 16.4598 294.646 15.3389 295.382 14.7304C296.151 14.1219 297.32 13.7536 298.889 13.6255C299.241 13.5935 299.626 13.5774 300.042 13.5774C301.419 13.5774 302.412 13.8657 303.021 14.4422C303.277 14.6984 303.757 15.451 304.462 16.7C305.006 18.8137 305.278 21.5039 305.278 24.7706C305.278 26.7882 305.086 29.9428 304.702 34.2343C304.446 37.2127 304.414 38.798 304.606 38.9902C305.823 38.3817 307.328 38.0774 309.122 38.0774C309.57 38.0774 309.89 38.1255 310.082 38.2216C311.011 38.5418 311.7 39.2624 312.148 40.3833C312.436 41.1199 312.644 42.1768 312.773 43.5539V43.4578ZM336.991 27.6529C337.119 28.1333 337.167 28.6297 337.135 29.1422C337.135 30.8395 336.447 32.2647 335.069 33.4176C333.82 34.5065 332.475 34.9709 331.034 34.8108C330.778 34.7147 330.298 34.6987 329.593 34.7627C329.657 35.1471 329.545 36.1719 329.257 37.8373C329.257 38.6059 329.593 39.1824 330.266 39.5667C331.579 39.2144 332.652 39.2144 333.484 39.5667C334.797 40.0791 335.518 40.9438 335.646 42.1608C335.806 43.5379 335.406 44.9471 334.445 46.3882C333.484 47.7974 332.155 48.9824 330.458 49.9431C328.953 50.8078 327.175 51.2402 325.125 51.2402C323.332 51.2402 321.715 50.9039 320.273 50.2314C319.665 49.9431 318.752 49.0464 317.535 47.5412C316.222 45.3634 315.55 40.7676 315.518 33.7539C315.486 29.7186 315.822 25.1069 316.526 19.9186C316.943 16.9082 317.807 14.9546 319.12 14.0578L327.143 13.2412C328.52 12.9529 329.833 12.8088 331.082 12.8088C333.58 12.8088 335.053 13.4333 335.502 14.6824C335.694 15.1948 335.79 15.7712 335.79 16.4118C335.79 17.7889 335.278 18.9098 334.253 19.7745C333.228 20.6392 331.803 21.0716 329.977 21.0716C329.529 21.0716 329.177 21.0556 328.92 21.0235C328.696 21.5039 328.568 22.2725 328.536 23.3294C328.472 24.6745 328.424 25.4431 328.392 25.6353C328.488 26.0837 328.824 26.3719 329.401 26.5C330.33 25.7634 331.499 25.3951 332.908 25.3951C334.541 25.3951 335.902 26.1477 336.991 27.6529Z" fill="url(#paint0_linear_667_2511)"/>
</g>
<defs>
<filter id="filter0_d_667_2511" x="-4" y="0" width="350" height="77" filterUnits="userSpaceOnUse" color-interpolation-filters="sRGB">
<feFlood flood-opacity="0" result="BackgroundImageFix"/>
<feColorMatrix in="SourceAlpha" type="matrix" values="0 0 0 0 0 0 0 0 0 0 0 0 0 0 0 0 0 0 127 0" result="hardAlpha"/>
<feOffset dy="4"/>
<feGaussianBlur stdDeviation="2"/>
<feComposite in2="hardAlpha" operator="out"/>
<feColorMatrix type="matrix" values="0 0 0 0 0 0 0 0 0 0 0 0 0 0 0 0 0 0 0.25 0"/>
<feBlend mode="normal" in2="BackgroundImageFix" result="effect1_dropShadow_667_2511"/>
<feBlend mode="normal" in="SourceGraphic" in2="effect1_dropShadow_667_2511" result="shape"/>
</filter>
<linearGradient id="paint0_linear_667_2511" x1="171" y1="0" x2="171" y2="50.7586" gradientUnits="userSpaceOnUse">
<stop stop-color="#BF1E04"/>
<stop offset="1" stop-color="#780202"/>
</linearGradient>
</defs>
</svg>
