<svg width="179" height="51" viewBox="0 0 179 51" fill="none" xmlns="http://www.w3.org/2000/svg">
<path d="M35.1616 9.63921H35.2224C35.344 10.2471 35.4048 11.0373 35.4048 12.0098C35.3642 14.0359 34.878 15.5758 33.9459 16.6294C33.5812 17.0346 31.9401 17.5209 29.0224 18.0882C26.1453 18.615 24.6662 18.9595 24.5852 19.1216C24.5041 19.5673 24.9701 23.802 25.9832 31.8255C26.1858 33.4464 26.2871 35.0673 26.2871 36.6882C26.2871 40.3758 25.8008 43.415 24.8283 45.8059C23.6126 48.8046 21.8296 50.2634 19.4793 50.1824C15.6701 50.0608 13.0159 48.8654 11.5165 46.5961C10.3819 44.8941 9.79431 42.1993 9.75378 38.5118C9.75378 38.8359 9.83483 36.7085 9.99692 32.1294L10.3008 24.349C10.4629 21.9176 10.7263 19.8105 11.091 18.0274C10.8479 18.1085 10.4832 18.149 9.99692 18.149C8.61914 18.149 7.24137 17.9261 5.86359 17.4804C3.99954 16.8725 2.72306 15.981 2.03418 14.8059C1.06163 13.1444 0.575352 11.5843 0.575352 10.1255C0.575352 7.69412 1.91261 5.8098 4.58712 4.47255C8.03156 2.73006 12.1852 1.85882 17.0479 1.85882C19.6008 1.85882 22.2754 2.10196 25.0714 2.58823C26.4087 3.07451 28.4348 3.82418 31.1499 4.83725C33.4191 6.01242 34.7564 7.61307 35.1616 9.63921ZM73.1915 44.651V44.7118C72.8268 46.6569 71.6313 47.8725 69.6052 48.3588C68.5921 48.602 67.5385 48.7235 66.4444 48.7235C64.4588 48.7235 62.8379 48.2575 61.5817 47.3255C60.6902 46.1503 60.1634 45.3804 60.0013 45.0157C59.4745 43.9621 59.2111 42.6046 59.2111 40.9431C57.5902 40.8621 55.7464 40.9431 53.6797 41.1863C53.7608 41.551 53.8418 42.098 53.9228 42.8275C53.9228 44.4889 53.4568 46.2111 52.5248 47.9941C51.3496 49.6556 49.6274 50.4863 47.3581 50.4863C46.264 50.4863 44.9065 50.2837 43.2856 49.8784L43.164 49.7569C39.7196 48.0549 37.9974 43.8203 37.9974 37.0529C37.9974 36.6072 38.0379 35.5536 38.1189 33.8922C38.4431 27.5301 39.0307 22.5457 39.8817 18.9392C41.0974 13.8333 43.2451 9.25425 46.3248 5.20196C48.7157 2.0817 52.1804 0.521566 56.7189 0.521566C61.5817 0.521566 65.249 2.04117 67.7209 5.08039C69.1797 6.8634 70.213 8.95032 70.8209 11.3412C73.0496 19.8915 74.164 27.4085 74.164 33.8922C74.164 37.7013 73.8398 41.2876 73.1915 44.651ZM57.813 28.7255C58.0967 25.4431 57.8941 20.317 57.2052 13.3471C56.9215 13.0634 56.4961 13.1647 55.9287 13.651C55.4019 17.0954 55.017 19.8915 54.7738 22.0392C54.3686 25.8078 54.2268 27.9556 54.3483 28.4824C54.551 28.9281 54.8954 29.151 55.3817 29.151C55.5438 29.151 55.949 29.0902 56.5974 28.9686C57.2862 28.8065 57.6915 28.7255 57.813 28.7255ZM109.141 12.9216C109.262 13.6105 109.323 14.2993 109.323 14.9882C109.323 17.1765 108.877 18.8784 107.986 20.0941C106.608 21.9987 104.542 22.8902 101.786 22.7686C99.2736 22.6471 97.5919 21.4719 96.7409 19.2431V17.5412C96.7409 17.0144 96.5383 16.5889 96.133 16.2647L95.7683 16.3255C93.1749 22.8902 91.8781 28.4013 91.8781 32.8588C91.8781 34.3582 91.8579 34.885 91.8174 34.4392C91.8579 35.0065 92.2023 35.6144 92.8507 36.2627C94.6337 36.1007 95.7481 35.5536 96.1938 34.6216C96.3964 34.0542 96.1736 33.5274 95.5252 33.0412C94.8768 32.9601 94.4716 32.8386 94.3095 32.6765C93.8638 32.4739 93.6206 32.1497 93.5801 31.7039C93.4991 30.6908 93.803 29.5967 94.4919 28.4216L96.0115 27.2059C96.4167 27.2059 97.4703 27.1451 99.1723 27.0235C100.915 26.8614 102.07 26.7804 102.637 26.7804C104.987 26.7804 106.75 27.368 107.925 28.5431C108.695 29.6778 109.08 31.1974 109.08 33.102C109.08 35.3307 108.634 37.6203 107.743 39.9706C106.77 42.5641 105.393 44.7523 103.61 46.5353C101.583 48.5614 99.3344 49.7366 96.8625 50.0608C95.6062 50.2229 94.5121 50.3039 93.5801 50.3039C90.0141 50.3039 86.833 49.149 84.037 46.8392C82.0919 45.2183 80.5723 42.8072 79.4781 39.6059C78.384 36.3641 77.837 32.6765 77.837 28.5431C77.837 22.9915 78.7487 17.8856 80.5723 13.2255C82.3958 8.56536 84.8474 5.22222 87.9272 3.19608C90.0344 2.10196 92.4049 1.5549 95.0389 1.5549C97.3487 1.5549 99.4762 2.02091 101.421 2.95294C106.162 6.19477 108.695 9.51764 109.019 12.9216H109.141ZM144.137 12.9216C144.259 13.6105 144.319 14.2993 144.319 14.9882C144.319 17.1765 143.874 18.8784 142.982 20.0941C141.604 21.9987 139.538 22.8902 136.782 22.7686C134.27 22.6471 132.588 21.4719 131.737 19.2431V17.5412C131.737 17.0144 131.534 16.5889 131.129 16.2647L130.764 16.3255C128.171 22.8902 126.874 28.4013 126.874 32.8588C126.874 34.3582 126.854 34.885 126.813 34.4392C126.854 35.0065 127.198 35.6144 127.847 36.2627C129.63 36.1007 130.744 35.5536 131.19 34.6216C131.393 34.0542 131.17 33.5274 130.521 33.0412C129.873 32.9601 129.468 32.8386 129.306 32.6765C128.86 32.4739 128.617 32.1497 128.576 31.7039C128.495 30.6908 128.799 29.5967 129.488 28.4216L131.008 27.2059C131.413 27.2059 132.466 27.1451 134.168 27.0235C135.911 26.8614 137.066 26.7804 137.633 26.7804C139.983 26.7804 141.746 27.368 142.921 28.5431C143.691 29.6778 144.076 31.1974 144.076 33.102C144.076 35.3307 143.63 37.6203 142.739 39.9706C141.766 42.5641 140.389 44.7523 138.606 46.5353C136.579 48.5614 134.33 49.7366 131.859 50.0608C130.602 50.2229 129.508 50.3039 128.576 50.3039C125.01 50.3039 121.829 49.149 119.033 46.8392C117.088 45.2183 115.568 42.8072 114.474 39.6059C113.38 36.3641 112.833 32.6765 112.833 28.5431C112.833 22.9915 113.745 17.8856 115.568 13.2255C117.392 8.56536 119.844 5.22222 122.923 3.19608C125.03 2.10196 127.401 1.5549 130.035 1.5549C132.345 1.5549 134.472 2.02091 136.417 2.95294C141.159 6.19477 143.691 9.51764 144.015 12.9216H144.137ZM159.013 37.5392H159.074C160.533 37.1745 161.283 36.4451 161.323 35.351C161.323 34.9458 161.141 34.5608 160.776 34.1961C160.452 33.8314 159.176 32.9601 156.947 31.5824C155.083 30.4072 153.725 29.4144 152.874 28.6039C151.699 27.4693 150.625 25.9294 149.653 23.9843C148.396 21.4314 147.768 18.8379 147.768 16.2039C147.768 12.3948 149.268 8.99085 152.266 5.99216C155.589 2.66928 159.561 1.00784 164.18 1.00784C166.855 1.00784 169.266 1.63595 171.413 2.89216C172.751 3.70261 174.189 5.20196 175.729 7.39019C176.378 8.36274 176.722 9.27451 176.762 10.1255C176.803 11.1386 176.317 12.3745 175.304 13.8333L175.364 13.8941C174.068 15.7176 172.71 16.6294 171.292 16.6294C170.806 16.6294 170.137 16.5281 169.286 16.3255C167.989 16.0013 167.24 14.8667 167.037 12.9216C166.956 12.1516 166.368 11.7667 165.274 11.7667C164.707 11.7667 164.2 11.9085 163.755 12.1922C163.309 13.0026 163.086 13.8131 163.086 14.6235C163.086 16.0013 163.734 17.1562 165.031 18.0882C169.813 21.4922 172.629 23.5993 173.48 24.4098C176.519 27.2869 178.14 30.3059 178.343 33.4667C178.383 34.2366 178.444 35.2699 178.525 36.5667C178.606 41.7941 175.466 45.8667 169.104 48.7843C166.713 49.8784 164.444 50.4255 162.296 50.4255C161.972 50.4255 161.526 50.385 160.959 50.3039L160.837 50.2431C153.057 48.9869 148.862 46.049 148.255 41.4294C148.093 40.3758 147.971 39.6464 147.89 39.2412C147.849 38.7954 147.829 38.6536 147.829 38.8157C147.829 37.7216 148.153 36.7693 148.802 35.9588C149.45 35.1484 150.179 34.7431 150.99 34.7431C151.355 34.7431 152.428 35.2294 154.212 36.202C155.995 37.134 157.23 37.6 157.919 37.6C158.203 37.6 158.547 37.5595 158.953 37.4784L159.013 37.5392Z" fill="url(#paint0_linear_587_2299)"/>
<defs>
<linearGradient id="paint0_linear_587_2299" x1="90" y1="-14" x2="90" y2="73" gradientUnits="userSpaceOnUse">
<stop stop-color="#FFFDD6"/>
<stop offset="1" stop-color="#F9A916"/>
</linearGradient>
</defs>
</svg>
