<svg width="323" height="107" viewBox="0 0 323 107" fill="none" xmlns="http://www.w3.org/2000/svg">
<path d="M27.6267 2.51764C28.6306 1.73333 29.6972 1.34118 30.8267 1.34118C33.211 1.34118 34.7639 2.67451 35.4855 5.34117C35.611 5.84313 35.8306 7.31765 36.1443 9.7647L36.2855 17.9529C36.5051 18.2353 36.7404 18.3765 36.9914 18.3765C37.2423 18.0627 37.3992 17.5137 37.4619 16.7294C37.5247 15.7882 37.5561 15.3176 37.5561 15.3176C37.9325 14.1882 38.5286 12.5098 39.3443 10.2824C40.1286 8.33725 41.4619 7.19215 43.3443 6.84706C44.6933 6.81568 45.6972 7.41176 46.3561 8.63529C46.8267 9.51372 47.2188 11.0196 47.5325 13.1529C47.7835 14.8471 47.8776 15.898 47.8149 16.3059C47.5953 16.9961 47.6267 17.749 47.909 18.5647C48.3482 18.6588 48.5835 18.5333 48.6149 18.1882C49.0227 11.3176 50.1521 6.32941 52.0031 3.22353C52.5678 2.25098 53.1953 1.60784 53.8855 1.29411C54.3247 1.01176 54.9835 0.823526 55.862 0.729408C57.3992 0.572546 58.8423 1.15294 60.1914 2.47059C61.2267 3.47451 61.7443 4.88627 61.7443 6.70588C61.7443 7.39608 61.4933 9.01176 60.9914 11.5529C60.458 14.5647 59.6267 19.0667 58.4972 25.0588C57.462 30.3608 55.8149 34.2824 53.5561 36.8235C52.7404 37.4824 51.658 37.8118 50.309 37.8118C48.7404 37.8118 47.2972 37.4353 45.9796 36.6824C44.9129 35.8039 44.207 34.6275 43.8619 33.1529C43.5796 31.9922 43.4227 30.549 43.3914 28.8235C43.3286 26.7529 43.2188 25.3412 43.062 24.5882C42.7482 24.3059 42.4816 24.1804 42.2619 24.2118C42.1678 24.6824 41.9639 26.5647 41.6502 29.8588C41.3992 32.3373 41.0384 34.1725 40.5678 35.3647C39.8149 37.1843 38.3561 38.1725 36.1914 38.3294C32.709 38.5804 30.0423 37.0745 28.1914 33.8118C27.0619 32.2431 26.1678 29.8745 25.509 26.7059C24.8816 23.5059 24.5835 20.0078 24.6149 16.2118C24.6776 8.61961 25.6816 4.0549 27.6267 2.51764ZM85.5879 15.1294C85.7134 15.6 85.7604 16.0863 85.729 16.5882C85.729 18.251 85.0545 19.6471 83.7055 20.7765C82.482 21.8431 81.1643 22.298 79.7526 22.1412C79.5016 22.0471 79.031 22.0314 78.3408 22.0941C78.4036 22.4706 78.2938 23.4745 78.0114 25.1059C78.0114 25.8588 78.3408 26.4235 78.9996 26.8C80.2859 26.4549 81.3369 26.4549 82.1526 26.8C83.4388 27.302 84.1447 28.149 84.2702 29.3412C84.4271 30.6902 84.0349 32.0706 83.0938 33.4824C82.1526 34.8627 80.8506 36.0235 79.1879 36.9647C77.7134 37.8118 75.9722 38.2353 73.9643 38.2353C72.2075 38.2353 70.6232 37.9059 69.2114 37.2471C68.6153 36.9647 67.7212 36.0863 66.529 34.6118C65.2428 32.4784 64.5839 27.9765 64.5526 21.1059C64.5212 17.1529 64.8506 12.6353 65.5408 7.55294C65.9487 4.60392 66.7957 2.69019 68.082 1.81176L75.9408 1.01176C77.2898 0.72941 78.5761 0.588234 79.7996 0.588234C82.2467 0.588234 83.6898 1.2 84.129 2.42353C84.3173 2.92549 84.4114 3.4902 84.4114 4.11765C84.4114 5.46666 83.9094 6.5647 82.9055 7.41176C81.9016 8.25882 80.5055 8.68235 78.7173 8.68235C78.2781 8.68235 77.933 8.66667 77.682 8.63529C77.4624 9.10588 77.3369 9.85882 77.3055 10.8941C77.2428 12.2118 77.1957 12.9647 77.1643 13.1529C77.2585 13.5922 77.5879 13.8745 78.1526 14C79.0624 13.2784 80.2075 12.9176 81.5879 12.9176C83.1879 12.9176 84.5212 13.6549 85.5879 15.1294ZM108.317 30.6118H108.27C107.925 33.3098 106.936 35.098 105.305 35.9765C103.046 36.8863 100.756 37.3412 98.4344 37.3412C91.7834 37.3412 88.4579 33.749 88.4579 26.5647C88.4579 24.7137 88.4579 23.7882 88.4579 23.7882C88.4579 23.4431 88.4736 22.9098 88.505 22.1882C88.5363 21.6235 88.552 21.2157 88.552 20.9647C88.3952 14.6274 88.6618 9.56078 89.352 5.7647C89.9167 4.1647 90.5599 3.06667 91.2814 2.47059C92.0344 1.87451 93.1795 1.51372 94.7167 1.38823C95.0618 1.35686 95.4383 1.34118 95.8461 1.34118C97.1952 1.34118 98.1677 1.62353 98.7638 2.18823C99.0148 2.43921 99.4854 3.17647 100.176 4.4C100.709 6.47059 100.976 9.10588 100.976 12.3059C100.976 14.2824 100.787 17.3725 100.411 21.5765C100.16 24.4941 100.128 26.0471 100.317 26.2353C101.509 25.6392 102.983 25.3412 104.74 25.3412C105.179 25.3412 105.493 25.3882 105.681 25.4824C106.591 25.7961 107.266 26.502 107.705 27.6C107.987 28.3216 108.191 29.3569 108.317 30.7059V30.6118ZM135.523 25.9059V25.9529C135.523 26.1098 135.523 26.3294 135.523 26.6118C135.555 26.9255 135.57 27.1451 135.57 27.2706C135.57 31.851 133.829 34.9569 130.347 36.5882C128.402 37.498 126.316 37.9529 124.088 37.9529C121.108 37.9529 118.676 37.1216 116.794 35.4588C112.841 31.9765 110.88 27.0824 110.912 20.7765C110.912 18.0157 111.241 14.8784 111.9 11.3647C112.402 8.66667 113.484 6.17255 115.147 3.88235C115.963 2.75294 117.139 1.84313 118.676 1.15294C120.245 0.431371 121.923 0.0705862 123.712 0.0705862C125.782 0.0705862 127.712 0.619606 129.5 1.71765C131.319 2.78431 132.731 4.22745 133.735 6.04706C134.331 7.1451 134.645 8.36863 134.676 9.71765C134.708 11.0039 134.394 12.1804 133.735 13.2471C132.857 14.6902 131.727 15.4902 130.347 15.6471C128.151 15.8667 126.206 14.8784 124.512 12.6824C124.48 12.5882 124.417 12.2118 124.323 11.5529C124.261 11.051 124.025 10.8157 123.617 10.8471L123.147 11.6941C122.833 18.3451 122.676 21.749 122.676 21.9059C122.676 22.8157 122.708 23.7098 122.77 24.5882C122.833 25.4667 123.21 26.0471 123.9 26.3294C124.621 26.298 125.861 25.498 127.617 23.9294C129.406 22.3608 130.629 21.5765 131.288 21.5765C131.79 21.5765 132.308 21.6863 132.841 21.9059C134.629 22.4392 135.523 23.7725 135.523 25.9059ZM164.828 29.7176L164.875 29.7647C164.059 32.3059 162.616 34.3137 160.545 35.7882C158.506 37.2627 156.138 38 153.44 38C148.451 38 144.577 36.1176 141.816 32.3529C139.463 29.1529 138.287 25.2627 138.287 20.6824C138.287 18.5804 138.475 16.6353 138.851 14.8471C140.577 6.65882 144.232 2.04706 149.816 1.01176C150.318 0.917645 150.851 0.870585 151.416 0.870585C153.926 0.870585 156.357 1.70196 158.71 3.36471C161.094 5.02745 162.694 7.05098 163.51 9.43529C165.267 14.6118 166.145 18.6431 166.145 21.5294C166.145 23.9765 165.691 26.7059 164.781 29.7176H164.828ZM153.157 26.3294V26.2824C154.067 26.1255 154.522 24.3843 154.522 21.0588C154.522 19.1451 154.349 17.3882 154.004 15.7882C153.659 14.1569 153.283 13.3098 152.875 13.2471C152.185 13.0588 151.557 13.8118 150.992 15.5059C150.428 17.2 150.145 19.0667 150.145 21.1059C150.145 24.902 151.149 26.6431 153.157 26.3294ZM203.061 31.6941C203.061 33.3255 202.731 34.5961 202.072 35.5059C201.539 36.2275 200.849 36.698 200.002 36.9176C199.563 37.0431 198.919 37.2 198.072 37.3882C197.414 37.5451 196.99 37.6235 196.802 37.6235C195.453 37.6235 194.308 37.0275 193.367 35.8353C192.425 34.6118 191.955 33.1059 191.955 31.3176C191.955 30.6275 192.127 29.0275 192.472 26.5176C192.755 24.5725 192.77 23.0353 192.519 21.9059C192.363 22.3765 191.876 23.8039 191.061 26.1882C189.994 29.2 189.037 31.0353 188.19 31.6941C187.719 32.0706 187.155 32.2588 186.496 32.2588C185.994 32.2588 185.476 32.0863 184.943 31.7412C183.249 29.9843 181.931 26.5804 180.99 21.5294C180.833 22.3137 180.755 23.1137 180.755 23.9294C180.755 24.4 180.88 25.8902 181.131 28.4C181.319 30.1882 181.319 31.6157 181.131 32.6824C180.88 34.0627 180.206 35.2863 179.108 36.3529C178.01 36.9804 176.959 37.2941 175.955 37.2941C174.574 37.2941 173.304 36.6824 172.143 35.4588C170.857 33.2627 170.104 31.8039 169.884 31.0824C169.414 29.6706 169.178 27.5529 169.178 24.7294C169.178 22.1255 169.398 17.5137 169.837 10.8941C169.994 8.60392 170.684 6.65882 171.908 5.05882C173.163 3.42745 174.841 2.31372 176.943 1.71765C181.116 1.59216 184.284 5.18431 186.449 12.4941C186.606 11.1451 187.092 9.35686 187.908 7.12941C189.1 3.86667 190.449 1.87451 191.955 1.15294C193.429 0.713723 194.684 0.494115 195.719 0.494115C197.445 0.494115 198.763 1.02745 199.672 2.09412C200.865 3.19216 201.696 4.60392 202.167 6.32941C202.48 7.49019 202.684 9.34118 202.778 11.8824C202.81 14.2039 202.841 16.5255 202.872 18.8471C202.998 23.9922 203.061 28.2588 203.061 31.6471V31.6941ZM227.197 15.1294C227.323 15.6 227.37 16.0863 227.338 16.5882C227.338 18.251 226.664 19.6471 225.315 20.7765C224.091 21.8431 222.774 22.298 221.362 22.1412C221.111 22.0471 220.64 22.0314 219.95 22.0941C220.013 22.4706 219.903 23.4745 219.621 25.1059C219.621 25.8588 219.95 26.4235 220.609 26.8C221.895 26.4549 222.946 26.4549 223.762 26.8C225.048 27.302 225.754 28.149 225.88 29.3412C226.036 30.6902 225.644 32.0706 224.703 33.4824C223.762 34.8627 222.46 36.0235 220.797 36.9647C219.323 37.8118 217.582 38.2353 215.574 38.2353C213.817 38.2353 212.233 37.9059 210.821 37.2471C210.225 36.9647 209.331 36.0863 208.138 34.6118C206.852 32.4784 206.193 27.9765 206.162 21.1059C206.131 17.1529 206.46 12.6353 207.15 7.55294C207.558 4.60392 208.405 2.69019 209.691 1.81176L217.55 1.01176C218.899 0.72941 220.185 0.588234 221.409 0.588234C223.856 0.588234 225.299 1.2 225.738 2.42353C225.927 2.92549 226.021 3.4902 226.021 4.11765C226.021 5.46666 225.519 6.5647 224.515 7.41176C223.511 8.25882 222.115 8.68235 220.327 8.68235C219.887 8.68235 219.542 8.66667 219.291 8.63529C219.072 9.10588 218.946 9.85882 218.915 10.8941C218.852 12.2118 218.805 12.9647 218.774 13.1529C218.868 13.5922 219.197 13.8745 219.762 14C220.672 13.2784 221.817 12.9176 223.197 12.9176C224.797 12.9176 226.131 13.6549 227.197 15.1294ZM269.404 6.75294H269.451C269.545 7.22353 269.592 7.83529 269.592 8.58823C269.561 10.1569 269.184 11.349 268.463 12.1647C268.18 12.4784 266.91 12.8549 264.651 13.2941C262.423 13.702 261.278 13.9686 261.216 14.0941C261.153 14.4392 261.514 17.7176 262.298 23.9294C262.455 25.1843 262.533 26.4392 262.533 27.6941C262.533 30.549 262.157 32.902 261.404 34.7529C260.463 37.0745 259.082 38.2039 257.263 38.1412C254.314 38.0471 252.259 37.1216 251.098 35.3647C250.22 34.0471 249.765 31.9608 249.733 29.1059C249.733 29.3569 249.796 27.7098 249.922 24.1647L250.157 18.1412C250.282 16.2588 250.486 14.6274 250.769 13.2471C250.58 13.3098 250.298 13.3412 249.922 13.3412C248.855 13.3412 247.788 13.1686 246.722 12.8235C245.278 12.3529 244.29 11.6627 243.757 10.7529C243.004 9.46667 242.627 8.25882 242.627 7.12941C242.627 5.24706 243.663 3.78823 245.733 2.75294C248.4 1.40392 251.616 0.729408 255.38 0.729408C257.357 0.729408 259.427 0.917644 261.592 1.29411C262.627 1.67058 264.196 2.25098 266.298 3.03529C268.055 3.9451 269.09 5.18431 269.404 6.75294ZM298.093 29.7176L298.14 29.7647C297.325 32.3059 295.882 34.3137 293.811 35.7882C291.772 37.2627 289.403 38 286.705 38C281.717 38 277.842 36.1176 275.082 32.3529C272.729 29.1529 271.552 25.2627 271.552 20.6824C271.552 18.5804 271.74 16.6353 272.117 14.8471C273.842 6.65882 277.497 2.04706 283.082 1.01176C283.584 0.917645 284.117 0.870585 284.682 0.870585C287.191 0.870585 289.623 1.70196 291.976 3.36471C294.36 5.02745 295.96 7.05098 296.776 9.43529C298.533 14.6118 299.411 18.6431 299.411 21.5294C299.411 23.9765 298.956 26.7059 298.046 29.7176H298.093ZM286.423 26.3294V26.2824C287.333 26.1255 287.788 24.3843 287.788 21.0588C287.788 19.1451 287.615 17.3882 287.27 15.7882C286.925 14.1569 286.548 13.3098 286.14 13.2471C285.45 13.0588 284.823 13.8118 284.258 15.5059C283.693 17.2 283.411 19.0667 283.411 21.1059C283.411 24.902 284.415 26.6431 286.423 26.3294ZM2.98961 69.7647H3.03667C3.82099 69.3569 4.66805 69.1529 5.57785 69.1529C7.52295 69.1529 8.91903 69.9216 9.76609 71.4588C10.4563 72.2118 11.1151 73.5922 11.7426 75.6C12.5582 78.2353 13.0288 79.6627 13.1543 79.8824C14.5347 73.9843 16.1504 70.1255 18.0014 68.3059C18.8798 67.9608 19.8053 67.7882 20.7779 67.7882C22.2524 67.7882 23.4288 68.1804 24.3073 68.9647C25.97 70.0627 26.8014 71.8667 26.8014 74.3765C26.519 76.9804 25.719 79.7882 24.4014 82.8C23.6171 84.5569 22.2994 87.1451 20.4484 90.5647C20.4484 91.9137 20.4328 93.9059 20.4014 96.5412C20.3386 98.8627 19.9779 100.792 19.319 102.329C18.5033 104.18 17.1386 105.435 15.2249 106.094C14.7229 106.157 14.3622 106.188 14.1426 106.188C11.6328 106.188 9.89158 105.2 8.91903 103.224C8.47981 101.969 8.2602 100.322 8.2602 98.2824C8.2602 97.3098 8.27589 96.4 8.30726 95.5529C8.33863 94.4235 8.33863 93.5765 8.30726 93.0118C3.16216 84.2274 0.589614 77.9843 0.589614 74.2824C0.589614 72.0863 1.38961 70.5804 2.98961 69.7647ZM55.6324 97.7176L55.6795 97.7647C54.8638 100.306 53.4207 102.314 51.3501 103.788C49.3109 105.263 46.9422 106 44.2442 106C39.256 106 35.3815 104.118 32.6207 100.353C30.2677 97.1529 29.0913 93.2627 29.0913 88.6824C29.0913 86.5804 29.2795 84.6353 29.656 82.8471C31.3815 74.6588 35.0364 70.0471 40.6207 69.0118C41.1226 68.9176 41.656 68.8706 42.2207 68.8706C44.7305 68.8706 47.1619 69.702 49.5148 71.3647C51.8991 73.0274 53.4991 75.051 54.3148 77.4353C56.0717 82.6118 56.9501 86.6431 56.9501 89.5294C56.9501 91.9765 56.4952 94.7059 55.5854 97.7176H55.6324ZM43.9619 94.3294V94.2824C44.8717 94.1255 45.3266 92.3843 45.3266 89.0588C45.3266 87.1451 45.154 85.3882 44.8089 83.7882C44.4638 82.1569 44.0873 81.3098 43.6795 81.2471C42.9893 81.0588 42.3619 81.8118 41.7972 83.5059C41.2324 85.2 40.9501 87.0667 40.9501 89.1059C40.9501 92.902 41.954 94.6431 43.9619 94.3294ZM88.1242 74.2353L88.1712 74.1882C88.2967 75.6627 88.3595 77.3098 88.3595 79.1294C88.3595 86.3137 87.2144 92.9647 84.9242 99.0824C84.3281 100.682 83.3869 102.141 82.1006 103.459C80.8457 104.745 79.5281 105.592 78.1477 106C76.8614 106.188 75.6065 106.282 74.383 106.282C70.9006 106.282 67.983 105.467 65.6301 103.835C63.3712 102.298 61.7869 100.118 60.8771 97.2941C60.1869 95.1608 59.8418 92.2118 59.8418 88.4471C59.8418 82.8 60.3908 78.0941 61.4889 74.3294C61.834 73.1686 62.5712 72.1333 63.7006 71.2235C64.8614 70.3137 66.0222 69.7961 67.183 69.6706C68.1869 69.5765 69.1752 69.8431 70.1477 70.4706C71.1516 71.0667 71.8889 71.851 72.3595 72.8235C72.4536 73.5765 72.5006 74.3765 72.5006 75.2235C72.5006 76.2588 72.2183 78.4706 71.6536 81.8588C71.0889 85.2471 70.8065 87.4275 70.8065 88.4C70.8065 89.3412 70.8693 90.1725 70.9948 90.8941C71.183 91.4275 71.7006 91.9608 72.5477 92.4941C73.583 92.6196 74.3203 92.4941 74.7595 92.1176C75.5752 91.2392 76.0771 90.0784 76.2654 88.6353C76.234 86.502 76.281 83.7569 76.4065 80.4C76.7203 77.702 76.9242 76.0392 77.0183 75.4118C77.2693 73.6235 77.5673 72.2588 77.9124 71.3176C79.0418 69.498 80.3281 68.6039 81.7712 68.6353C83.1203 68.6667 84.3595 69.1843 85.4889 70.1882C86.6183 71.1922 87.4967 72.5412 88.1242 74.2353ZM118.071 101.012H118.024C117.585 101.953 116.848 102.91 115.812 103.882C114.463 105.106 113.099 105.796 111.718 105.953C109.051 106.235 106.322 103.522 103.53 97.8118C103.624 98.6275 103.671 99.3333 103.671 99.9294C103.671 101.875 103.2 103.412 102.259 104.541C100.816 105.545 99.373 106.047 97.9299 106.047C97.3024 106.047 96.7377 105.984 96.2358 105.859C94.3848 105.388 93.1769 104.792 92.6122 104.071C91.8593 103.129 91.4828 101.435 91.4828 98.9882V97.1059C91.3887 97.0118 91.4201 94.2039 91.5769 88.6824C91.7652 82.4392 92.1259 77.6863 92.6593 74.4235C93.0671 72.0706 94.7299 70.4549 97.6475 69.5765C99.0279 69.1686 101.742 68.7608 105.789 68.3529C110.589 68.5098 113.883 70.1098 115.671 73.1529C117.02 76.1961 117.679 78.9882 117.648 81.5294C117.616 84.1333 116.91 86.3137 115.53 88.0706C115.31 88.3529 114.416 89.1843 112.848 90.5647C116.393 94.3922 118.165 97.5922 118.165 100.165C118.165 100.353 118.134 100.635 118.071 101.012ZM104.612 79.0824H104.565C104.377 79.0196 104.22 78.9882 104.095 78.9882C103.969 78.9882 103.483 79.2078 102.636 79.6471C102.51 79.7725 102.463 80.5725 102.495 82.0471C102.526 83.7725 102.542 85.4039 102.542 86.9412C103.734 86.5333 104.738 85.9529 105.553 85.2C106.4 84.4157 106.824 83.6 106.824 82.7529C106.824 81.5922 106.087 80.3686 104.612 79.0824ZM157.808 74L157.761 74.0471C159.424 76.6196 160.255 79.2549 160.255 81.9529C160.255 84.8706 159.299 87.6 157.385 90.1412C155.785 92.2745 152.271 93.7647 146.844 94.6118C146.781 95.2078 146.844 96.1647 147.032 97.4824C147.283 98.8941 147.408 99.6941 147.408 99.8824C147.408 101.012 147.095 102.235 146.467 103.553C146.153 104.212 145.495 104.761 144.491 105.2C143.518 105.639 142.42 105.859 141.197 105.859C139.377 105.859 137.918 105.373 136.82 104.4C135.753 103.396 135.173 102.016 135.079 100.259C134.357 97.1843 134.012 93.9529 134.044 90.5647V80.4941C134.044 80.2118 134.106 79.051 134.232 77.0118C134.357 75.1608 134.671 73.6078 135.173 72.3529C135.832 70.7216 136.773 69.749 137.997 69.4353C140.82 68.7137 143.377 68.3529 145.667 68.3529C151.22 68.3529 155.252 70.2353 157.761 74H157.808ZM148.726 82.5176C149.102 81.7647 149.291 81.0431 149.291 80.3529C149.291 78.5961 148.146 77.6235 145.855 77.4353C145.699 78.7529 145.62 79.7569 145.62 80.4471C145.62 81.4196 145.636 82.1412 145.667 82.6118C145.73 83.3333 145.808 84.3843 145.902 85.7647C146.185 85.5137 146.546 85.1529 146.985 84.6824C147.801 83.8667 148.365 83.1294 148.679 82.4706L148.726 82.5176ZM187.962 101.012H187.915C187.475 101.953 186.738 102.91 185.703 103.882C184.354 105.106 182.989 105.796 181.609 105.953C178.942 106.235 176.213 103.522 173.42 97.8118C173.515 98.6275 173.562 99.3333 173.562 99.9294C173.562 101.875 173.091 103.412 172.15 104.541C170.707 105.545 169.264 106.047 167.82 106.047C167.193 106.047 166.628 105.984 166.126 105.859C164.275 105.388 163.068 104.792 162.503 104.071C161.75 103.129 161.373 101.435 161.373 98.9882V97.1059C161.279 97.0118 161.311 94.2039 161.468 88.6824C161.656 82.4392 162.017 77.6863 162.55 74.4235C162.958 72.0706 164.62 70.4549 167.538 69.5765C168.919 69.1686 171.632 68.7608 175.679 68.3529C180.479 68.5098 183.773 70.1098 185.562 73.1529C186.911 76.1961 187.57 78.9882 187.538 81.5294C187.507 84.1333 186.801 86.3137 185.42 88.0706C185.201 88.3529 184.307 89.1843 182.738 90.5647C186.283 94.3922 188.056 97.5922 188.056 100.165C188.056 100.353 188.024 100.635 187.962 101.012ZM174.503 79.0824H174.456C174.268 79.0196 174.111 78.9882 173.985 78.9882C173.86 78.9882 173.373 79.2078 172.526 79.6471C172.401 79.7725 172.354 80.5725 172.385 82.0471C172.417 83.7725 172.432 85.4039 172.432 86.9412C173.624 86.5333 174.628 85.9529 175.444 85.2C176.291 84.4157 176.715 83.6 176.715 82.7529C176.715 81.5922 175.977 80.3686 174.503 79.0824ZM217.492 97.7176L217.539 97.7647C216.723 100.306 215.28 102.314 213.209 103.788C211.17 105.263 208.802 106 206.104 106C201.115 106 197.241 104.118 194.48 100.353C192.127 97.1529 190.951 93.2627 190.951 88.6824C190.951 86.5804 191.139 84.6353 191.515 82.8471C193.241 74.6588 196.896 70.0471 202.48 69.0118C202.982 68.9176 203.515 68.8706 204.08 68.8706C206.59 68.8706 209.021 69.702 211.374 71.3647C213.758 73.0274 215.358 75.051 216.174 77.4353C217.931 82.6118 218.809 86.6431 218.809 89.5294C218.809 91.9765 218.355 94.7059 217.445 97.7176H217.492ZM205.821 94.3294V94.2824C206.731 94.1255 207.186 92.3843 207.186 89.0588C207.186 87.1451 207.013 85.3882 206.668 83.7882C206.323 82.1569 205.947 81.3098 205.539 81.2471C204.849 81.0588 204.221 81.8118 203.657 83.5059C203.092 85.2 202.809 87.0667 202.809 89.1059C202.809 92.902 203.813 94.6431 205.821 94.3294ZM241.56 85.3412V85.2941C241.999 86.1098 242.219 86.8627 242.219 87.5529C242.219 88.3373 241.842 89.3412 241.089 90.5647C240.431 92.0392 239.27 92.9647 237.607 93.3412C237.042 93.3412 235.725 93.451 233.654 93.6706C233.623 94.2353 233.686 95.4275 233.842 97.2471C234.031 99.2235 234.125 100.384 234.125 100.729C234.125 104.086 232.886 105.765 230.407 105.765C229.403 105.765 227.819 105.388 225.654 104.635C223.646 102.596 222.548 99.5686 222.36 95.5529L221.56 79.5529C221.654 78.3922 221.764 76.651 221.889 74.3294C222.235 72.3529 223.16 71.0039 224.666 70.2824C226.266 69.2471 229.184 68.7294 233.419 68.7294C235.709 68.7294 237.544 68.949 238.925 69.3882C240.431 70.7059 241.184 72.1176 241.184 73.6235C241.184 75.6314 240.446 77.0902 238.972 78C238.752 78.2196 237.889 78.5176 236.384 78.8941C235.003 79.2706 234.235 79.6157 234.078 79.9294C234.078 80.651 233.889 81.6863 233.513 83.0353C233.67 83.1922 233.889 83.2706 234.172 83.2706C234.391 83.2706 234.956 83.1451 235.866 82.8941C236.807 82.6431 237.356 82.5176 237.513 82.5176C239.207 82.549 240.556 83.4902 241.56 85.3412ZM258.598 74.9882C258.598 76.2745 258.629 77.8431 258.692 79.6941C258.755 81.5451 258.786 82.7373 258.786 83.2706C258.817 89.4824 258.394 95.0353 257.516 99.9294C256.951 103.098 255.508 104.996 253.186 105.624C252.496 105.686 252.025 105.718 251.774 105.718C248.606 105.718 246.817 104.259 246.41 101.341C245.688 96.3216 245.343 91.7882 245.374 87.7412C245.406 83.4745 245.735 79.6941 246.363 76.4L247.633 73.2471C249.265 70.8941 251.586 69.7176 254.598 69.7176C255.288 69.7176 255.9 69.7804 256.433 69.9059C257.312 70.3137 257.892 71.051 258.174 72.1176L258.598 74.9882ZM281.637 98.6118H281.59C281.245 101.31 280.257 103.098 278.625 103.976C276.366 104.886 274.076 105.341 271.755 105.341C265.104 105.341 261.778 101.749 261.778 94.5647C261.778 92.7137 261.778 91.7882 261.778 91.7882C261.778 91.4431 261.794 90.9098 261.825 90.1882C261.857 89.6235 261.872 89.2157 261.872 88.9647C261.715 82.6274 261.982 77.5608 262.672 73.7647C263.237 72.1647 263.88 71.0667 264.602 70.4706C265.355 69.8745 266.5 69.5137 268.037 69.3882C268.382 69.3569 268.759 69.3412 269.166 69.3412C270.515 69.3412 271.488 69.6235 272.084 70.1882C272.335 70.4392 272.806 71.1765 273.496 72.4C274.029 74.4706 274.296 77.1059 274.296 80.3059C274.296 82.2824 274.108 85.3725 273.731 89.5765C273.48 92.4941 273.449 94.0471 273.637 94.2353C274.829 93.6392 276.304 93.3412 278.061 93.3412C278.5 93.3412 278.814 93.3882 279.002 93.4824C279.912 93.7961 280.586 94.502 281.025 95.6C281.308 96.3216 281.512 97.3569 281.637 98.7059V98.6118ZM305.361 83.1294C305.487 83.6 305.534 84.0863 305.502 84.5882C305.502 86.251 304.828 87.6471 303.479 88.7765C302.255 89.8431 300.938 90.298 299.526 90.1412C299.275 90.0471 298.804 90.0314 298.114 90.0941C298.177 90.4706 298.067 91.4745 297.785 93.1059C297.785 93.8588 298.114 94.4235 298.773 94.8C300.059 94.4549 301.11 94.4549 301.926 94.8C303.212 95.302 303.918 96.149 304.044 97.3412C304.201 98.6902 303.808 100.071 302.867 101.482C301.926 102.863 300.624 104.024 298.961 104.965C297.487 105.812 295.746 106.235 293.738 106.235C291.981 106.235 290.397 105.906 288.985 105.247C288.389 104.965 287.495 104.086 286.302 102.612C285.016 100.478 284.357 95.9765 284.326 89.1059C284.295 85.1529 284.624 80.6353 285.314 75.5529C285.722 72.6039 286.569 70.6902 287.855 69.8118L295.714 69.0118C297.063 68.7294 298.35 68.5882 299.573 68.5882C302.02 68.5882 303.463 69.2 303.902 70.4235C304.091 70.9255 304.185 71.4902 304.185 72.1176C304.185 73.4667 303.683 74.5647 302.679 75.4118C301.675 76.2588 300.279 76.6824 298.491 76.6824C298.052 76.6824 297.706 76.6667 297.455 76.6353C297.236 77.1059 297.11 77.8588 297.079 78.8941C297.016 80.2118 296.969 80.9647 296.938 81.1529C297.032 81.5922 297.361 81.8745 297.926 82C298.836 81.2784 299.981 80.9176 301.361 80.9176C302.961 80.9176 304.295 81.6549 305.361 83.1294ZM321.878 69.9529L321.925 69.9059C322.522 70.8784 322.82 71.9922 322.82 73.2471C322.82 74.2196 322.537 75.7882 321.973 77.9529C321.439 80.1176 321.188 81.749 321.22 82.8471C320.529 86.8314 320.153 89.9059 320.09 92.0706C319.808 93.1059 318.741 93.749 316.89 94C316.325 94.0941 315.792 94.1412 315.29 94.1412C313.627 94.1412 312.357 93.6863 311.478 92.7765C310.725 92.0235 310.286 90.4549 310.161 88.0706C310.255 87.1294 310.302 86.1098 310.302 85.0118C310.302 83.8196 310.208 82.0941 310.02 79.8353C309.863 77.5765 309.784 75.898 309.784 74.8C309.784 72.6667 310.035 70.7529 310.537 69.0588L310.631 69.2C310.945 68.6039 311.18 68.2118 311.337 68.0235C311.682 67.5216 312.09 67.2078 312.561 67.0824C313.063 66.9255 313.612 66.8471 314.208 66.8471C314.773 66.8471 316.122 67.051 318.255 67.4588C320.012 68.0549 321.22 68.8863 321.878 69.9529ZM319.902 98.1882C320.373 99.098 320.608 100.102 320.608 101.2C320.608 102.173 320.42 103.161 320.043 104.165C318.882 105.733 316.937 106.518 314.208 106.518C313.612 106.518 313.016 106.486 312.42 106.424C310.223 105.263 309 103.506 308.749 101.153C308.78 100.714 308.749 100.071 308.655 99.2235C309.314 97.0275 310.929 95.6471 313.502 95.0824C315.384 95.302 316.608 95.5059 317.173 95.6941C318.49 96.1647 319.4 96.9961 319.902 98.1882Z" fill="url(#paint0_linear_587_2799)"/>
<defs>
<linearGradient id="paint0_linear_587_2799" x1="162" y1="-12" x2="162" y2="124" gradientUnits="userSpaceOnUse">
<stop stop-color="#FE9F87"/>
<stop offset="1" stop-color="#E36790"/>
</linearGradient>
</defs>
</svg>
