<svg width="13" height="14" viewBox="0 0 13 14" fill="none" xmlns="http://www.w3.org/2000/svg">
    <path d="M10.9634 6.96636V11.0569C10.9634 11.8085 10.2773 12.4175 9.42872 12.4175H2.21119C1.36421 12.4175 0.677734 11.8085 0.677734 11.0569V3.53327C0.677734 2.78179 1.36385 2.17188 2.21119 2.17188H7.44387" stroke="#698DD3" stroke-miterlimit="10" stroke-linecap="round"/>
    <path d="M12.1365 3.48087L6.91848 8.73143L5.96839 9.0864L4.50391 9.63313L5.00531 8.12819L5.31334 7.20267C5.31481 7.20057 5.31651 7.19863 5.31839 7.19689L10.574 1.90842C10.6762 1.80516 10.7979 1.7232 10.932 1.66726C11.0661 1.61132 11.21 1.58252 11.3553 1.58252C11.5006 1.58252 11.6444 1.61132 11.7785 1.66726C11.9126 1.7232 12.0343 1.80516 12.1365 1.90842C12.3438 2.11761 12.4601 2.40017 12.4601 2.69464C12.4601 2.98912 12.3438 3.27168 12.1365 3.48087V3.48087Z" stroke="#698DD3" stroke-linecap="round" stroke-linejoin="round"/>
    <path d="M5.05525 5.62109L5.04297 5.62561" stroke="#5C5B5E" stroke-width="0.91" stroke-miterlimit="10"/>
</svg>
