<svg width="12" height="12" viewBox="0 0 12 12" fill="none" xmlns="http://www.w3.org/2000/svg">
<path d="M9.5047 4.38525H2.6506C2.34078 4.38525 2.04365 4.50833 1.82457 4.72741C1.6055 4.94648 1.48242 5.24361 1.48242 5.55344V10.5306C1.4824 10.684 1.5126 10.8359 1.5713 10.9776C1.63 11.1194 1.71604 11.2482 1.82452 11.3567C1.933 11.4652 2.06179 11.5512 2.20353 11.61C2.34527 11.6687 2.49718 11.6989 2.6506 11.6989H9.5047C9.65812 11.6989 9.81004 11.6687 9.95178 11.61C10.0935 11.5512 10.2223 11.4652 10.3308 11.3567C10.4393 11.2482 10.5253 11.1194 10.584 10.9776C10.6427 10.8359 10.6729 10.684 10.6729 10.5306V5.55344C10.6729 5.40003 10.6427 5.24812 10.584 5.10639C10.5253 4.96466 10.4392 4.83588 10.3307 4.72741C10.2223 4.61893 10.0935 4.53288 9.95175 4.47418C9.81002 4.41547 9.65811 4.38525 9.5047 4.38525V4.38525ZM6.77561 7.92677V9.09813C6.77561 9.27093 6.70697 9.43664 6.58479 9.55882C6.4626 9.68101 6.29689 9.74965 6.12409 9.74965C5.9513 9.74965 5.78559 9.68101 5.6634 9.55882C5.54122 9.43664 5.47258 9.27093 5.47258 9.09813V7.92677C5.29414 7.79051 5.16292 7.60174 5.09738 7.38701C5.03183 7.17228 5.03526 6.9424 5.10718 6.72972C5.1791 6.51704 5.31589 6.33226 5.49831 6.20138C5.68072 6.07051 5.89958 6.00012 6.12409 6.00012C6.3486 6.00012 6.56747 6.07051 6.74988 6.20138C6.9323 6.33226 7.06909 6.51704 7.14101 6.72972C7.21293 6.9424 7.21636 7.17228 7.15081 7.38701C7.08526 7.60174 6.95404 7.79051 6.77561 7.92677V7.92677Z" fill="#BDBDBD"/>
<path d="M9.96366 3.48719C9.91821 3.67946 9.78184 3.83037 9.56275 3.90219C9.39609 3.95704 9.20972 3.96855 9.04336 3.91007C8.66533 3.77749 8.66321 3.39219 8.54836 3.06916C8.17669 2.02901 7.23048 1.28931 6.12245 1.28931C5.46639 1.28931 4.83563 1.56855 4.3676 2.02355C4.11351 2.27052 3.88805 2.57673 3.76518 2.91113C3.64487 3.2387 3.60578 3.6784 3.27124 3.87098C3.15881 3.93583 3.02563 3.9587 2.89593 3.9528C2.71881 3.94492 2.53972 3.88113 2.41548 3.75446C2.12366 3.45749 2.33457 3.04567 2.48609 2.73643C2.56809 2.56854 2.65861 2.40494 2.7573 2.24628C2.95066 1.93369 3.17945 1.64446 3.43912 1.38431C3.95866 0.867796 4.61063 0.493554 5.32987 0.341281C5.48088 0.309499 5.63369 0.286982 5.78745 0.273857C5.84624 0.268907 5.90518 0.26522 5.96427 0.262796C6.01699 0.260776 6.06967 0.259766 6.1223 0.259766C7.36472 0.259766 8.55412 0.85916 9.29503 1.85537C9.44412 2.05598 9.56775 2.27386 9.67896 2.49734C9.78624 2.7131 9.91836 2.94174 9.96548 3.18067C9.98691 3.28179 9.98629 3.38634 9.96366 3.48719V3.48719Z" fill="#BDBDBD"/>
</svg>
