<svg width="10" height="11" viewBox="0 0 10 11" fill="none" xmlns="http://www.w3.org/2000/svg">
    <g clip-path="url(#clip0_2641_6356)">
        <path d="M7.91961 4.15332H2.20786C1.94968 4.15332 1.70207 4.25588 1.5195 4.43845C1.33694 4.62101 1.23438 4.86862 1.23438 5.12681V9.27441C1.23436 9.40226 1.25953 9.52886 1.30844 9.64698C1.35736 9.7651 1.42906 9.87244 1.51946 9.96285C1.60986 10.0533 1.71718 10.125 1.83529 10.1739C1.95341 10.2228 2.08001 10.248 2.20786 10.248H7.91961C8.04746 10.248 8.17406 10.2228 8.29218 10.1739C8.41029 10.125 8.51762 10.0533 8.60801 9.96285C8.69841 9.87244 8.77012 9.7651 8.81903 9.64698C8.86795 9.52886 8.89311 9.40226 8.8931 9.27441V5.12681C8.8931 4.99897 8.86792 4.87238 8.81899 4.75427C8.77007 4.63616 8.69837 4.52884 8.60797 4.43845C8.51757 4.34805 8.41026 4.27634 8.29215 4.22742C8.17404 4.1785 8.04745 4.15332 7.91961 4.15332ZM5.64537 7.10458V8.08072C5.64537 8.22471 5.58816 8.36281 5.48635 8.46463C5.38453 8.56645 5.24643 8.62365 5.10244 8.62365C4.95844 8.62365 4.82035 8.56645 4.71853 8.46463C4.61671 8.36281 4.55951 8.22471 4.55951 8.08072V7.10458C4.41081 6.99103 4.30146 6.83372 4.24684 6.65478C4.19222 6.47584 4.19507 6.28428 4.255 6.10704C4.31494 5.92981 4.42893 5.77583 4.58094 5.66676C4.73296 5.5577 4.91534 5.49904 5.10244 5.49904C5.28953 5.49904 5.47191 5.5577 5.62393 5.66676C5.77594 5.77583 5.88993 5.92981 5.94987 6.10704C6.0098 6.28428 6.01266 6.47584 5.95803 6.65478C5.90341 6.83372 5.79406 6.99103 5.64537 7.10458Z" fill="white"/>
        <path d="M8.30142 3.40534C8.26354 3.56557 8.14991 3.69132 7.96733 3.75117C7.82844 3.79688 7.67314 3.80648 7.5345 3.75774C7.21948 3.64726 7.21771 3.32617 7.122 3.05698C6.81228 2.19019 6.02377 1.57377 5.10041 1.57377C4.5537 1.57377 4.02806 1.80648 3.63804 2.18564C3.4263 2.39145 3.23842 2.64663 3.13602 2.92529C3.03577 3.19827 3.00319 3.56468 2.7244 3.72516C2.63072 3.7792 2.51973 3.79827 2.41165 3.79334C2.26405 3.78678 2.11481 3.73362 2.01127 3.62807C1.76809 3.38059 1.94385 3.03741 2.07011 2.77971C2.13845 2.6398 2.21388 2.50347 2.29612 2.37125C2.45726 2.11076 2.64791 1.86973 2.8643 1.65294C3.29726 1.22251 3.84056 0.910644 4.43993 0.78375C4.56577 0.757265 4.69312 0.738501 4.82125 0.727563C4.87024 0.723438 4.91935 0.720366 4.96859 0.718346C5.01253 0.716662 5.05643 0.71582 5.10029 0.71582C6.13564 0.71582 7.1268 1.21532 7.74423 2.04549C7.86847 2.21266 7.9715 2.39423 8.06418 2.58047C8.15357 2.76026 8.26367 2.95079 8.30294 3.14991C8.3208 3.23417 8.32028 3.3213 8.30142 3.40534Z" fill="white"/>
    </g>
    <defs>
        <clipPath id="clip0_2641_6356">
            <rect width="10" height="10" fill="white" transform="translate(0 0.5)"/>
        </clipPath>
    </defs>
</svg>
