<svg width="18" height="17" viewBox="0 0 18 17" fill="none" xmlns="http://www.w3.org/2000/svg">
    <path d="M1 1H3.89722L6.07 11.0083H15.3539L17 3.7H4.95055" stroke="#6EE7E7" stroke-linecap="round"
          stroke-linejoin="round"/>
    <path d="M7.43123 15.817C8.17314 15.817 8.77457 15.2156 8.77457 14.4737C8.77457 13.7318 8.17314 13.1304 7.43123 13.1304C6.68932 13.1304 6.08789 13.7318 6.08789 14.4737C6.08789 15.2156 6.68932 15.817 7.43123 15.817Z"
          stroke="#6EE7E7" stroke-linecap="round" stroke-linejoin="round"/>
    <path d="M13.5882 15.8692C14.3445 15.8692 14.9577 15.2561 14.9577 14.4998C14.9577 13.7435 14.3445 13.1304 13.5882 13.1304C12.8319 13.1304 12.2188 13.7435 12.2188 14.4998C12.2188 15.2561 12.8319 15.8692 13.5882 15.8692Z"
          stroke="#6EE7E7" stroke-linecap="round" stroke-linejoin="round"/>
</svg>
