<svg id="Layer_1" data-name="Layer 1" xmlns="http://www.w3.org/2000/svg" viewBox="0 0 792 792">
    <defs>
        <style>
            .cls-1,.cls-2{fill:none;stroke:#fff;stroke-miterlimit:10;stroke-width:16px;}.cls-1{stroke-linecap:round;}
        </style>
    </defs>
    <path class="cls-1"
          d="M204.9,167.55,28.36,646.4S1.75,738.3,98.49,728.63l474-241.84s12.09-65.3-166.87-208c0,0-128.76-110.7-167.1-104.59s-.72,56.67-.72,56.67"/>
    <path class="cls-1" d="M229.34,306.39S331,523.27,447.9,550.36"/>
    <path class="cls-1" d="M253.14,60.8S384.68,150,315.57,321.65"/>
    <line class="cls-1" x1="360.41" y1="346.18" x2="427.04" y2="228.01"/>
    <line class="cls-1" x1="427.04" y1="339.49" x2="624.4" y2="216.5"/>
    <path class="cls-1" d="M460.48,377.39s165-42.71,251.94,19.89"/>
    <path class="cls-1"
          d="M509.83,448.45s181.48,37.33,143.76,85.09-68.67-73.61-23.17-88S809.22,484.4,768,513.07s-61.64-91.86-25.16-106.5"/>
    <path class="cls-1"
          d="M102.2,292.31s61.68-84.89,0-93.63S2.53,214.54,42.88,161.89s57-50.28,11.87-55-9.49-64.09-9.49-64.09"/>
    <rect class="cls-2" x="332.02" y="88.01" width="41.09" height="41.09" rx="7.51"
          transform="translate(204.55 -229.35) rotate(49.23)"/>
    <rect class="cls-2" x="540.13" y="88.01" width="41.09" height="41.09" rx="7.51"
          transform="translate(276.77 -386.97) rotate(49.23)"/>
    <rect class="cls-2" x="439.94" y="157.42" width="41.09" height="41.09" rx="7.51"
          transform="translate(518.03 -312.35) rotate(75.56)"/>
    <rect class="cls-2" x="170.83" y="88.01" width="41.09" height="41.09" rx="7.51"
          transform="translate(148.62 -107.27) rotate(49.23)"/>
    <rect class="cls-2" x="594.88" y="556.9" width="41.09" height="41.09" rx="7.51"
          transform="translate(250.85 -183.66) rotate(21.23)"/>
    <rect class="cls-2" x="464.79" y="561.95" width="41.09" height="41.09" rx="7.51"
          transform="translate(686.08 -148.64) rotate(55.15)"/>
    <rect class="cls-2" x="57.36" y="386.02" width="41.09" height="41.09" rx="7.51"
          transform="translate(275.76 42.94) rotate(39.4)"/>
    <path class="cls-1" d="M128.59,421.33s31.27,145.46,170.25,203"/>
    <path class="cls-1" d="M77.91,544.6s9.62,149.81,65.73,159.48"/>
</svg>
