<svg width="17" height="12" viewBox="0 0 17 12" fill="none" xmlns="http://www.w3.org/2000/svg">
    <path d="M16.5 1.60653C16.5003 1.75199 16.4708 1.89608 16.413 2.03048C16.3552 2.16487 16.2703 2.28691 16.1633 2.38954L7.03905 11.1763C6.82007 11.3837 6.5252 11.5 6.21804 11.5C5.91087 11.5 5.616 11.3837 5.39702 11.1763L0.836779 6.78293C0.621143 6.57526 0.5 6.2936 0.5 5.99991C0.5 5.70622 0.621143 5.42456 0.836779 5.21689C1.05242 5.00922 1.34488 4.89255 1.64984 4.89255C1.95479 4.89255 2.24726 5.00922 2.46289 5.21689L6.21821 8.83639L14.5382 0.823835C14.6989 0.66914 14.9038 0.563823 15.1267 0.521196C15.3496 0.478569 15.5807 0.500544 15.7906 0.584346C16.0006 0.668147 16.18 0.810012 16.3063 0.99201C16.4326 1.17401 16.5 1.38797 16.5 1.60685V1.60653Z" fill="#70E76E"/>
</svg>
