<svg width="13" height="12" viewBox="0 0 13 12" fill="none" xmlns="http://www.w3.org/2000/svg">
    <path d="M9.80117 4.11729C9.80131 4.17963 9.78911 4.24139 9.76527 4.29898C9.74143 4.35658 9.70642 4.40888 9.66226 4.45287L5.89853 8.21863C5.8082 8.30753 5.68657 8.35735 5.55986 8.35735C5.43315 8.35735 5.31152 8.30753 5.22119 8.21863L3.34009 6.33575C3.25114 6.24675 3.20117 6.12604 3.20117 6.00017C3.20117 5.8743 3.25114 5.75359 3.34009 5.66459C3.42904 5.57559 3.54969 5.52559 3.67548 5.52559C3.80127 5.52559 3.92192 5.57559 4.01087 5.66459L5.55993 7.2158L8.99191 3.78185C9.05824 3.71556 9.14272 3.67042 9.23468 3.65215C9.32664 3.63388 9.42194 3.6433 9.50855 3.67921C9.59516 3.71513 9.66919 3.77593 9.72127 3.85393C9.77335 3.93193 9.80116 4.02363 9.80117 4.11743V4.11729Z"
          fill="#70E76E"/>
    <circle cx="6.5" cy="6" r="5.5" stroke="#70E76E"/>
</svg>
