<svg id="Layer_1" data-name="Layer 1" xmlns="http://www.w3.org/2000/svg" viewBox="0 0 720 720"><defs><style>.cls-1,.cls-2,.cls-3{fill:none;}.cls-1,.cls-2{stroke-linecap:round;stroke-width:48px;}.cls-1,.cls-3{stroke-miterlimit:10;}.cls-2{stroke-linejoin:round;}.cls-3{stroke:#5c5b5e;stroke-width:0.91px;}</style></defs><path stroke="#828282" class="cls-1" d="M607.16,358.14V584.69c0,41.63-38,75.36-85,75.36H122.42c-46.91,0-84.93-33.73-84.93-75.36V168c0-41.62,38-75.4,84.93-75.4H412.23"/><path stroke="#828282" class="cls-2" d="M672.13,165.09l-289,290.8-52.62,19.66-81.11,30.28,27.77-83.35,17.06-51.26a2,2,0,0,1,.28-.32L585.59,78a60.89,60.89,0,0,1,86.54,0A61.87,61.87,0,0,1,672.13,165.09Z"/><line class="cls-3" x1="280.02" y1="283.62" x2="279.34" y2="283.87"/></svg>
