<svg id="Layer_1" data-name="Layer 1" xmlns="http://www.w3.org/2000/svg" viewBox="0 0 792 792"><defs><style>.cls-2{fill:none;stroke-miterlimit:10;stroke-width:47.9px;}</style></defs><path fill="#6c8dc8" stroke="#6c8dc8" class="cls-1" d="M522.4,416.32l-18.18-16.86a13.07,13.07,0,0,0-18.47.68l-62.59,67.45V248.64a22,22,0,0,0-22-22h-8.21a22,22,0,0,0-22,22V470.19l-65-70.05a13.11,13.11,0,0,0-18.5-.68l-18.18,16.86a13.1,13.1,0,0,0-.68,18.51l96.51,104,20.39,22,1.52,1.4a14,14,0,0,0,2.52,1.84,14.37,14.37,0,0,0,2.85,1.17,2.18,2.18,0,0,0,.88.2,6.27,6.27,0,0,0,1.2.2,11.3,11.3,0,0,0,1.16.08H396a11.3,11.3,0,0,0,1.16-.08,6.68,6.68,0,0,0,1.29-.2,4.48,4.48,0,0,0,.92-.24c.48-.12.92-.32,1.4-.48l1-.49a13.55,13.55,0,0,0,2.84-2l1.53-1.4,20.42-22,96.48-104A13.11,13.11,0,0,0,522.4,416.32Z"/><circle stroke="#6c8dc8" class="cls-2" cx="395.82" cy="396.18" r="369.73"/></svg>
