<svg width="61" height="61" viewBox="0 0 61 61" fill="none" xmlns="http://www.w3.org/2000/svg">
<g filter="url(#filter0_d)">
<rect x="2" width="59" height="59" rx="3.17964" fill="url(#paint0_linear)"/>
<path d="M45.6377 15.5001C47.466 15.5088 48.9459 17.0183 48.9547 18.8762C48.9547 22.2851 42.8568 25.6621 42.8568 25.6621C42.8568 25.6621 36.7598 22.2356 36.7598 18.8762C36.7598 17.0111 38.2453 15.5001 40.0768 15.5001C40.6309 15.4969 41.1766 15.6345 41.6629 15.9001C42.1492 16.1657 42.56 16.5504 42.8568 17.0183C43.1559 16.5524 43.5673 16.1692 44.0532 15.9039C44.5392 15.6386 45.084 15.4997 45.6377 15.5001Z" fill="#D7443E"/>
<path d="M17.6745 38.9963C18.1391 38.7755 18.672 38.7468 19.1576 38.9164C19.6432 39.0861 20.0423 39.4404 20.2683 39.9025C21.1426 41.6781 18.8348 44.9999 18.8348 44.9999C18.8348 44.9999 14.781 44.7809 13.9188 43.0317C13.804 42.8039 13.7352 42.5557 13.7163 42.3013C13.6974 42.0469 13.7288 41.7912 13.8087 41.549C13.8886 41.3067 14.0155 41.0825 14.182 40.8893C14.3486 40.6961 14.5516 40.5375 14.7794 40.4227C15.0674 40.2793 15.3872 40.2114 15.7087 40.2254C16.0301 40.2394 16.3428 40.3348 16.6173 40.5026C16.6531 40.183 16.7687 39.8776 16.9534 39.6144C17.1382 39.3512 17.3861 39.1386 17.6745 38.9963Z" fill="#D7443E"/>
<path d="M52.6672 22.0482L8.70707 27.7654C8.26155 27.8234 7.94736 28.2315 8.0053 28.677L9.42152 39.5664C9.47946 40.012 9.8876 40.3262 10.3331 40.2682L54.2933 34.551C54.7388 34.493 55.053 34.0849 54.995 33.6394L53.5788 22.75C53.5209 22.3045 53.1127 21.9903 52.6672 22.0482Z" fill="white" stroke="#698DD3" stroke-linecap="round" stroke-linejoin="round"/>
<path d="M19.9371 35.3274L21.0055 35.1884L20.7434 33.1747L22.821 32.9046L22.7108 32.0575L20.6331 32.3276L20.4549 30.9564L22.7355 30.6591L22.6213 29.7801L19.2715 30.2156L19.9371 35.3274ZM24.5359 34.7297L25.5707 34.5946L25.2862 32.4115C25.2143 31.8586 25.5427 31.4734 26.1317 31.3967C26.291 31.3789 26.4518 31.3789 26.6111 31.3967L26.4937 30.4929C26.3631 30.4765 26.2311 30.4765 26.1005 30.4929C25.5939 30.5592 25.2719 30.8533 25.2023 31.292L25.1384 31.3008L25.0585 30.6943L24.0197 30.8293L24.5359 34.7297ZM28.0032 29.7002C28.1165 29.6836 28.2225 29.6338 28.3076 29.5572C28.3928 29.4805 28.4534 29.3804 28.4817 29.2693C28.5101 29.1583 28.5051 29.0414 28.4672 28.9333C28.4293 28.8251 28.3602 28.7306 28.2687 28.6616C28.1773 28.5926 28.0674 28.5522 27.953 28.5455C27.8386 28.5387 27.7248 28.566 27.6259 28.6238C27.5269 28.6816 27.4473 28.7674 27.397 28.8703C27.3467 28.9733 27.3279 29.0888 27.3431 29.2024C27.3535 29.2785 27.3788 29.3519 27.4177 29.4182C27.4566 29.4845 27.5082 29.5424 27.5695 29.5887C27.6309 29.635 27.7008 29.6686 27.7752 29.6878C27.8496 29.7069 27.9271 29.7111 28.0032 29.7002ZM28.0679 34.2702L29.1027 34.1352L28.5969 30.2324L27.5581 30.3675L28.0679 34.2702ZM32.2335 33.8107C33.3754 33.6621 33.7926 32.9373 33.8501 32.4323V32.3963L32.8856 32.5218L32.8776 32.5442C32.8265 32.704 32.6059 32.9765 32.152 33.0348C31.6031 33.1067 31.2107 32.7791 31.1132 32.139L33.7998 31.789L33.7582 31.4694C33.6048 30.2891 32.7945 29.6011 31.6566 29.749C30.5187 29.8968 29.8986 30.7878 30.0584 32.0304C30.2262 33.2825 31.0461 33.965 32.2335 33.8107ZM31.7805 30.5209C32.2311 30.4625 32.5915 30.7111 32.729 31.2696L31.0453 31.4886C31.0373 30.9276 31.3306 30.5792 31.7805 30.5209ZM35.2373 33.3369L36.2761 33.2026L35.9821 30.9444C35.9134 30.4162 36.1595 30.0342 36.6381 29.9719C37.1168 29.9096 37.3917 30.1701 37.4636 30.7191L37.7608 33.0092L38.7997 32.8742L38.4712 30.3507C38.3498 29.4181 37.8128 28.9475 36.9442 29.0601C36.3848 29.1329 36.0356 29.4493 35.9134 29.8936L35.8494 29.9024L35.7695 29.2999L34.7347 29.4341L35.2373 33.3369ZM41.5597 32.5769C42.1095 32.5058 42.4923 32.207 42.6393 31.7595L42.7032 31.7507L42.7831 32.3572L43.822 32.2221L43.1156 26.8235L42.0767 26.9577L42.3524 29.0745L42.2885 29.0825C42.0384 28.683 41.5693 28.4768 41.0331 28.5463C40.0439 28.675 39.5468 29.5052 39.7098 30.7622V30.7694C39.876 32.0176 40.5832 32.7024 41.5597 32.5769ZM41.7995 31.674C41.2537 31.7451 40.8605 31.3543 40.767 30.6352V30.628C40.6743 29.9152 40.9532 29.4293 41.4998 29.3614C42.0464 29.2935 42.4459 29.685 42.5386 30.4002V30.4074C42.6329 31.1242 42.3484 31.6005 41.7995 31.6724V31.674Z" fill="#698DD3"/>
</g>
<defs>
<filter id="filter0_d" x="0.82" y="0" width="60.18" height="60.18" filterUnits="userSpaceOnUse" color-interpolation-filters="sRGB">
<feFlood flood-opacity="0" result="BackgroundImageFix"/>
<feColorMatrix in="SourceAlpha" type="matrix" values="0 0 0 0 0 0 0 0 0 0 0 0 0 0 0 0 0 0 127 0" result="hardAlpha"/>
<feOffset dx="-0.59" dy="0.59"/>
<feGaussianBlur stdDeviation="0.295"/>
<feComposite in2="hardAlpha" operator="out"/>
<feColorMatrix type="matrix" values="0 0 0 0 0 0 0 0 0 0 0 0 0 0 0 0 0 0 0.2 0"/>
<feBlend mode="normal" in2="BackgroundImageFix" result="effect1_dropShadow"/>
<feBlend mode="normal" in="SourceGraphic" in2="effect1_dropShadow" result="shape"/>
</filter>
<linearGradient id="paint0_linear" x1="2" y1="0" x2="75.0159" y2="17.1311" gradientUnits="userSpaceOnUse">
<stop stop-color="#6EE7E7"/>
<stop offset="1" stop-color="#8F01FF"/>
</linearGradient>
</defs>
</svg>
