<svg width="35" height="35" viewBox="0 0 35 35" fill="none" xmlns="http://www.w3.org/2000/svg">
<path fill-rule="evenodd" clip-rule="evenodd" d="M0 4C0 1.79086 1.79086 0 4 0H31C33.2091 0 35 1.79086 35 4V31C35 33.2091 33.2091 35 31 35H4C1.79086 35 0 33.2091 0 31V4ZM14.6622 18.933C12.0135 13.2573 7.56757 12.1537 5.67568 12.3114V28.8654H29.7973C27.9054 25.0817 25.0676 23.6627 22.7027 23.6627C22.2993 23.6627 21.8777 23.7488 21.4365 23.8388L21.4365 23.8388C19.5648 24.2207 17.3415 24.6744 14.6622 18.933ZM26.0135 12.2973C27.842 12.2973 29.3243 10.815 29.3243 8.98649C29.3243 7.15798 27.842 5.67568 26.0135 5.67568C24.185 5.67568 22.7027 7.15798 22.7027 8.98649C22.7027 10.815 24.185 12.2973 26.0135 12.2973Z" fill="white"/>
</svg>
