<svg id="Layer_1" data-name="Layer 1" xmlns="http://www.w3.org/2000/svg" viewBox="0 0 792 792"><defs><style>.cls-1{fill:none;stroke-miterlimit:10;stroke-width:31.7px}</style></defs><circle stroke="#828282" class="cls-1" cx="396" cy="396.51" r="210.49"/><rect fill="#828282" class="cls-2" x="378.76" y="275.31" width="34.48" height="242.41" rx="15.72"/><rect fill="#828282" class="cls-2" x="378.76" y="275.31" width="34.48" height="242.41" rx="15.72" transform="translate(-0.51 792.51) rotate(-90)"/><path fill="#828282" class="cls-2" d="M712.18,4H79.81A76.33,76.33,0,0,0,3.49,80.33V712.7A76.32,76.32,0,0,0,79.81,789H712.18a76.33,76.33,0,0,0,76.33-76.32V80.33A76.34,76.34,0,0,0,712.18,4Zm48.57,702.8A51.73,51.73,0,0,1,709,758.53H84A51.73,51.73,0,0,1,32.26,706.8v-625A51.73,51.73,0,0,1,84,30H709a51.73,51.73,0,0,1,51.73,51.73Z"/></svg>
