<svg width="14" height="15" viewBox="0 0 14 15" fill="none" xmlns="http://www.w3.org/2000/svg">
<path fill-rule="evenodd" clip-rule="evenodd" d="M7 14.5C10.866 14.5 14 11.366 14 7.5C14 3.63401 10.866 0.5 7 0.5C3.13401 0.5 0 3.63401 0 7.5C0 11.366 3.13401 14.5 7 14.5ZM7.96202 4.08352C7.96202 4.52606 7.60043 4.87685 7.16329 4.87685C6.72075 4.87685 6.35917 4.52606 6.35917 4.08352C6.35917 3.64638 6.72075 3.29019 7.16329 3.29019C7.60043 3.29019 7.96202 3.64638 7.96202 4.08352ZM7.83249 11.7632H6.48869V5.86446H7.83249V11.7632Z" fill="#F2F2F2"/>
</svg>
