<svg width="68" height="67" viewBox="0 0 68 67" fill="none" xmlns="http://www.w3.org/2000/svg">
<path d="M53.8566 24.4829H15.0167C13.261 24.4829 11.5773 25.1701 10.3358 26.3933C9.0944 27.6164 8.39697 29.2754 8.39697 31.0053V58.7942C8.39686 59.6508 8.568 60.499 8.90062 61.2904C9.23324 62.0819 9.72083 62.801 10.3355 63.4067C10.9502 64.0125 11.68 64.493 12.4832 64.8208C13.2864 65.1487 14.1473 65.3174 15.0167 65.3174H53.8566C54.726 65.3174 55.5868 65.1487 56.39 64.8208C57.1932 64.493 57.923 64.0125 58.5377 63.4067C59.1524 62.801 59.64 62.0819 59.9726 61.2904C60.3052 60.499 60.4764 59.6508 60.4763 58.7942V31.0053C60.4763 30.1487 60.3051 29.3006 59.9724 28.5093C59.6397 27.7179 59.1521 26.9989 58.5374 26.3933C57.9227 25.7876 57.193 25.3072 56.3898 24.9794C55.5867 24.6516 54.7259 24.4829 53.8566 24.4829ZM38.3917 44.2564V50.7965C38.3917 51.7612 38.0027 52.6865 37.3104 53.3687C36.618 54.0509 35.6789 54.4341 34.6998 54.4341C33.7206 54.4341 32.7816 54.0509 32.0892 53.3687C31.3968 52.6865 31.0079 51.7612 31.0079 50.7965V44.2564C29.9967 43.4956 29.2531 42.4416 28.8817 41.2427C28.5103 40.0438 28.5297 38.7603 28.9373 37.5729C29.3448 36.3854 30.12 35.3537 31.1536 34.623C32.1873 33.8922 33.4276 33.4992 34.6998 33.4992C35.972 33.4992 37.2122 33.8922 38.2459 34.623C39.2796 35.3537 40.0548 36.3854 40.4623 37.5729C40.8699 38.7603 40.8893 40.0438 40.5178 41.2427C40.1464 42.4416 39.4028 43.4956 38.3917 44.2564Z" fill="#4F4F4F"/>
<path d="M56.4537 19.4689C56.1962 20.5424 55.4234 21.385 54.1819 21.786C53.2375 22.0922 52.1814 22.1565 51.2387 21.83C49.0965 21.0897 49.0845 18.9385 48.4337 17.1349C46.3276 11.3274 40.9657 7.19739 34.6869 7.19739C30.9692 7.19739 27.3949 8.75649 24.7427 11.2969C23.3029 12.6758 22.0253 14.3855 21.329 16.2525C20.6473 18.0815 20.4258 20.5365 18.53 21.6117C17.8929 21.9738 17.1382 22.1015 16.4033 22.0685C15.3996 22.0245 14.3847 21.6684 13.6807 20.9612C12.0271 19.3031 13.2222 17.0038 14.0808 15.2772C14.5455 14.3398 15.0585 13.4263 15.6177 12.5405C16.7134 10.7952 18.0099 9.18029 19.4813 7.72781C22.4254 4.84393 26.1199 2.75441 30.1956 1.90422C31.0513 1.72678 31.9172 1.60106 32.7885 1.52777C33.1217 1.50014 33.4557 1.47955 33.7905 1.46602C34.0893 1.45474 34.3878 1.4491 34.686 1.4491C41.7264 1.4491 48.4663 4.79571 52.6648 10.3579C53.5096 11.4779 54.2103 12.6944 54.8405 13.9422C55.4483 15.1469 56.197 16.4234 56.464 17.7575C56.5855 18.3221 56.582 18.9058 56.4537 19.4689Z" fill="#4F4F4F"/>
</svg>
