<svg id="Layer_1" data-name="Layer 1" xmlns="http://www.w3.org/2000/svg" viewBox="0 0 792 792"><path fill="#fff" class="cls-1" d="M529.09,727.42c-13.39.28-26.47,4.51-39.46,8-98.67,26.36-208.29,8.38-293.37-48.12S52.09,536.73,38.1,435.57a350.84,350.84,0,0,1-3.23-53.72A364.21,364.21,0,0,1,39.78,328a371.24,371.24,0,0,1,33-102.77,361.08,361.08,0,0,1,27.41-46.61A344.94,344.94,0,0,1,133.51,138a348.47,348.47,0,0,1,37.68-34.27,363.56,363.56,0,0,1,42.18-28.57,376.28,376.28,0,0,1,94.16-38.63,372.16,372.16,0,0,1,50.1-9.4,358.89,358.89,0,0,1,50.88-2.33,343.19,343.19,0,0,1,48.94,4.75C579.91,50.49,688.52,139.18,733.51,255s24.75,254.55-51.46,352.65c-8.07,10.4-16.91,20.7-20.93,33.23-3.38,10.53-3.1,21.83-2.78,32.89l2.25,78.08c.13,4.52.06,9.6-3.15,12.79-4.57,4.55-12.21,2.46-18.2.07l-65.65-26.15c-13.22-5.27-26.77-10.61-41-11.09C531.43,727.4,530.26,727.4,529.09,727.42Z"/></svg>
