<svg width="13" height="14" viewBox="0 0 13 14" fill="none" xmlns="http://www.w3.org/2000/svg">
<path d="M7.27507 4.15684L7.75888 4.14117V3.6571V1.04579C7.77018 1.02419 7.7798 1.01035 7.78641 1.00204C7.79018 1.00289 7.79473 1.00412 7.80009 1.00586C7.80695 1.0081 7.81367 1.01074 7.82004 1.01357L12.4964 6.50512L12.4963 6.50517L12.4997 6.50901C12.4996 6.50976 12.4995 6.51059 12.4994 6.51148C12.4981 6.52224 12.4942 6.5371 12.4872 6.55349C12.4834 6.56245 12.4798 6.56923 12.4774 6.57346L7.86372 12.1146C7.82412 12.1215 7.80062 12.1204 7.79034 12.1192C7.78638 12.1128 7.78017 12.1009 7.77395 12.0815C7.76345 12.0487 7.75888 12.0126 7.75888 11.9857V9.39872V8.9321L7.29337 8.89991C3.35111 8.62736 1.26207 11.4278 0.676549 12.8703L0.676533 12.8703C0.666696 12.8946 0.656282 12.9178 0.643854 12.9399C0.63124 12.9623 0.619503 12.9781 0.609912 12.9884C0.600959 12.9979 0.59688 12.9994 0.598084 12.9988C0.598747 12.9985 0.599141 12.9984 0.599179 12.9984C0.599308 12.9985 0.595292 13 0.583727 13C0.582234 13 0.581133 13 0.580357 12.9999C0.578023 12.9982 0.572995 12.9941 0.565855 12.9858C0.554573 12.9726 0.542511 12.9539 0.532049 12.9318C0.52851 12.9243 0.525632 12.9174 0.523333 12.9114C0.323389 9.44076 1.43285 7.29535 2.84128 6C4.27673 4.6798 6.07419 4.19574 7.27507 4.15684Z" fill="white" stroke="#698DD3"/>
</svg>
