<svg id="Layer_1" data-name="Layer 1" xmlns="http://www.w3.org/2000/svg" viewBox="0 0 20 20"><defs><style>.cls-1{fill:none;stroke-miterlimit:10;stroke-width:1.41px;}</style></defs><circle stroke="#000" class="cls-1" cx="10" cy="10" r="9.18"/><path d="M16.7,10a6.71,6.71,0,0,1-.09,1.1,3.76,3.76,0,0,1-.9,2,2.84,2.84,0,0,1-3.06.6,2.15,2.15,0,0,1-1.32-1.39c-.15-.65.1-1.36-.16-2a1.29,1.29,0,1,0-2.33,1.08,1.34,1.34,0,0,0,1.78.54v1.69a2.89,2.89,0,0,1-2.91-4.6,3,3,0,0,1,3.2-1,3,3,0,0,1,2,2.69A2.62,2.62,0,0,0,13,12a1,1,0,0,0,1.39.09,3.09,3.09,0,0,0,.63-2.68,5.24,5.24,0,0,0-1.15-2.7,5.11,5.11,0,0,0-.45-.48,5.22,5.22,0,0,0-5-1.12A5.21,5.21,0,0,0,5,8.87a5.11,5.11,0,0,0,6.52,6v1.66a6.87,6.87,0,0,1-6.77-2.35A6.85,6.85,0,0,1,3.41,8.72,6.66,6.66,0,0,1,6.59,4.21a6.86,6.86,0,0,1,2.29-.84,6.85,6.85,0,0,1,5.85,1.87A6.89,6.89,0,0,1,16.7,10Z"/><path d="M10,5.4a1.11,1.11,0,1,0,1.11,1.11A1.11,1.11,0,0,0,10,5.4ZM10,7a.51.51,0,1,1,.51-.51A.51.51,0,0,1,10,7Z"/></svg>
