<svg id="Layer_1" data-name="Layer 1" xmlns="http://www.w3.org/2000/svg" viewBox="0 0 720 720"><path fill="#fff" class="cls-1" d="M413.14,36.09,387.86,255.37h5.7L251.35,397.57H153c-11.76-2.43-34.2-14.21-29.95-41.86.89-4,3.6-12.62,7.32-15.28L351.28,12.83c6-7.53,23.41-19.67,45.23-8C402.5,8.4,414.2,19.61,413.14,36.09Z"/><path fill="#fff" class="cls-1" d="M594.91,341l-9.32,15.28L339.45,709.1c-6,6.2-22.89,16.35-42.58,7.31s-20.62-30.78-18.63-40.53L297,493.2,495.79,294.46H569C580.94,297.12,602.89,310.14,594.91,341Z"/><path fill="#fff" class="cls-1" d="M634.48,114.82a29,29,0,0,1-8.5,20.53L486.15,275.18,287.4,473.92,135.09,626.24A29,29,0,1,1,94,585.18l167.8-167.8L404,275.18,584.92,94.29a29,29,0,0,1,49.56,20.53Z"/></svg>
