<svg id="Layer_1" data-name="Layer 1" xmlns="http://www.w3.org/2000/svg" viewBox="0 0 720 720"><path fill="#fff" class="cls-1" d="M605.45,161.89H566.67L551.78,85c-2.94-14.79-16.53-25.53-32.23-25.53H223.36c-16.2,0-30.11,11.52-32.4,26.93l-11,75.5H114.55C51.38,161.89,0,210.78,0,270.87V526.49c0,60.24,51.38,109,114.55,109h490.9c63.33,0,114.55-48.73,114.55-109V270.87C720,210.78,668.78,161.89,605.45,161.89Zm-86.4,275.55s-27,85.93-123.7,99.48c-72.5,10.43-119.46-26.47-135.17-41.41l-5.07,21.17c-2.13,8.56-11,13.85-20,11.83a16,16,0,0,1-12.77-15.57,12,12,0,0,1,.33-3.42l14.07-57.76a16.48,16.48,0,0,1,14.73-12.14,17.45,17.45,0,0,1,7.53.16L319.58,453c9,2,14.57,10.58,12.44,19-1.64,7.32-8.51,12.3-16,12.3a16.73,16.73,0,0,1-3.76-.47l-23.07-5c45.16,35.34,88,28.8,88,28.8,90.82-7.47,111-80.95,111-80.95,3.76-16,20.45-12,20.45-12C526.91,421.25,519.05,437.44,519.05,437.44Zm1.31-166.73-14.07,57.76a16.48,16.48,0,0,1-14.73,12.14,17.4,17.4,0,0,1-7.52-.16l-60.55-13.23c-9-2-14.56-10.58-12.44-19,1.64-7.32,8.51-12.3,16-12.3a16.59,16.59,0,0,1,3.76.47l23.08,5c-45.17-35.34-88-28.8-88-28.8-90.82,7.47-110.95,80.95-110.95,80.95-3.76,16-20.45,12-20.45,12C216.16,359,224,342.79,224,342.79s27-85.93,123.71-99.48c72.49-10.43,119.45,26.47,135.16,41.41L488,263.55c2.13-8.56,11-13.85,20-11.83a16,16,0,0,1,12.76,15.57A12,12,0,0,1,520.36,270.71Z"/></svg>
