<svg width="375" height="289" viewBox="0 0 375 289" fill="none" xmlns="http://www.w3.org/2000/svg">
<g clip-path="url(#clip0_1162_2303)">
<path d="M350.265 28.4315C350.265 28.4315 349.909 20.5994 341.788 20.5994C333.667 20.5994 332.966 16.5143 332.966 16.5143" stroke="#6EE7E7" stroke-width="4" stroke-miterlimit="10" stroke-linecap="round"/>
<path d="M0.590348 273.174C0.590348 273.174 6.46469 267.757 1.13833 261.87C-4.18804 255.983 -1.49745 252.775 -1.49745 252.775" stroke="#698DD3" stroke-width="4" stroke-miterlimit="10" stroke-linecap="round"/>
<path d="M9.44602 90.1005C9.44602 90.1005 12.0873 86.3536 7.16094 83.6689C2.23461 80.9842 1.92775 79.4094 2.87575 75.5198C3.82375 71.6302 4.56352 69.5638 1.05098 69.0301C-2.46157 68.4963 -4.20414 66.6572 -3.04243 61.5732C-1.88071 56.4893 -0.697076 54.999 -4.7302 54.0794C-8.76333 53.1599 -10.7087 52.494 -9.69489 48.4406C-8.68113 44.3871 -5.72204 42.1939 -10.4566 40.2016C-15.1911 38.2092 -16.3035 38.2621 -15.0267 34.0607" stroke="#6EE7E7" stroke-width="4" stroke-miterlimit="10" stroke-linecap="round"/>
<path d="M-11.887 164.065C-11.887 164.065 -7.28393 167.642 -3.78234 164.065C-0.280751 160.487 1.69746 160.682 6.52516 162.78C11.3529 164.878 13.9174 166.2 14.6901 163.193C15.4627 160.186 17.8135 159.197 24.1263 161.856C30.439 164.514 32.2802 166.083 33.5406 162.717C34.8009 159.351 35.6722 157.807 40.7355 160.022C45.7989 162.236 48.4073 165.603 51.054 161.951C53.7007 158.299 53.6514 157.279 58.8627 159.773" stroke="#6EE7E7" stroke-width="4" stroke-miterlimit="10" stroke-linecap="round"/>
<path d="M316.55 289.372C316.55 289.372 316.276 293.896 321.931 293.764C327.586 293.632 328.693 294.821 329.943 298.636C331.192 302.452 331.663 304.587 334.962 303.308C338.261 302.029 340.738 302.743 342.447 307.679C344.157 312.615 343.932 314.485 347.878 313.275C351.823 312.065 353.845 311.69 355.139 315.664C356.432 319.638 355.051 322.994 360.18 322.36C365.309 321.725 366.208 321.128 367.364 325.367" stroke="#698DD3" stroke-width="4" stroke-miterlimit="10" stroke-linecap="round"/>
<path d="M157.833 211.781C157.833 211.781 162.141 213.583 163.954 208.414C165.768 203.246 167.308 202.654 171.445 202.823C175.583 202.992 177.829 203.304 177.714 199.874C177.599 196.444 179.144 194.452 184.537 194.589C189.929 194.727 191.66 195.578 191.852 191.588C192.044 187.598 192.323 185.626 196.663 185.827C201.003 186.028 203.787 188.417 204.916 183.555C206.045 178.693 205.793 177.652 210.308 178.08" stroke="#698DD3" stroke-width="4" stroke-miterlimit="10" stroke-linecap="round"/>
<path d="M298.466 120.603C298.466 120.603 302.16 124.751 307.086 119.651C312.012 114.552 314.04 114.615 318.479 116.798C322.917 118.98 325.191 120.418 327.022 116.401C328.852 112.385 331.679 110.831 337.499 113.584C343.318 116.338 344.76 118.15 347.226 113.632C349.691 109.114 351.133 106.978 355.774 109.293C360.415 111.608 362.087 115.693 366.103 110.63C370.12 105.567 370.427 104.241 375.134 106.899" stroke="#698DD3" stroke-width="4" stroke-miterlimit="10" stroke-linecap="round"/>
<path d="M138.457 133.582C138.457 133.582 134.982 155.635 151.674 164.799" stroke="#6EE7E7" stroke-width="4" stroke-miterlimit="10" stroke-linecap="round"/>
<path d="M56.1035 128.33C56.1035 128.33 77.8857 135.84 90.4071 121.793" stroke="#698DD3" stroke-width="4" stroke-miterlimit="10" stroke-linecap="round"/>
<path d="M123.338 47.1337C130.459 47.1337 136.232 41.5663 136.232 34.6986C136.232 27.8309 130.459 22.2635 123.338 22.2635C116.217 22.2635 110.444 27.8309 110.444 34.6986C110.444 41.5663 116.217 47.1337 123.338 47.1337Z" fill="#6EE7E7"/>
<path d="M379.299 262.969C385.891 262.969 391.234 257.816 391.234 251.459C391.234 245.102 385.891 239.949 379.299 239.949C372.708 239.949 367.364 245.102 367.364 251.459C367.364 257.816 372.708 262.969 379.299 262.969Z" fill="#6EE7E7"/>
<path d="M98.9365 223.598C105.528 223.598 110.871 218.444 110.871 212.087C110.871 205.73 105.528 200.577 98.9365 200.577C92.3449 200.577 87.0015 205.73 87.0015 212.087C87.0015 218.444 92.3449 223.598 98.9365 223.598Z" fill="#6EE7E7"/>
<path d="M278.121 194.975C284.712 194.975 290.056 189.822 290.056 183.465C290.056 177.108 284.712 171.955 278.121 171.955C271.529 171.955 266.186 177.108 266.186 183.465C266.186 189.822 271.529 194.975 278.121 194.975Z" fill="#698DD3"/>
<path d="M73.9392 85.0037C77.2954 85.0037 80.0162 82.3798 80.0162 79.1429C80.0162 75.9061 77.2954 73.2821 73.9392 73.2821C70.5829 73.2821 67.8621 75.9061 67.8621 79.1429C67.8621 82.3798 70.5829 85.0037 73.9392 85.0037Z" stroke="#6EE7E7" stroke-width="4" stroke-miterlimit="10"/>
<path d="M45.0771 229.504C48.4334 229.504 51.1542 226.88 51.1542 223.643C51.1542 220.406 48.4334 217.782 45.0771 217.782C41.7208 217.782 39 220.406 39 223.643C39 226.88 41.7208 229.504 45.0771 229.504Z" stroke="#6EE7E7" stroke-width="4" stroke-miterlimit="10"/>
<path d="M243.751 134.75C250.815 134.75 256.541 129.228 256.541 122.415C256.541 115.603 250.815 110.081 243.751 110.081C236.687 110.081 230.961 115.603 230.961 122.415C230.961 129.228 236.687 134.75 243.751 134.75Z" stroke="#6EE7E7" stroke-width="4" stroke-miterlimit="10"/>
<path d="M11.8237 203.161C16.5116 203.161 20.3119 199.496 20.3119 194.975C20.3119 190.454 16.5116 186.789 11.8237 186.789C7.13575 186.789 3.33545 190.454 3.33545 194.975C3.33545 199.496 7.13575 203.161 11.8237 203.161Z" fill="#698DD3"/>
<path d="M316.868 239.315C321.556 239.315 325.356 235.65 325.356 231.129C325.356 226.608 321.556 222.943 316.868 222.943C312.18 222.943 308.379 226.608 308.379 231.129C308.379 235.65 312.18 239.315 316.868 239.315Z" stroke="#698DD3" stroke-width="4" stroke-miterlimit="10"/>
<path d="M184.098 73.2616C187.224 73.2616 189.758 70.8175 189.758 67.8024C189.758 64.7874 187.224 62.3433 184.098 62.3433C180.971 62.3433 178.437 64.7874 178.437 67.8024C178.437 70.8175 180.971 73.2616 184.098 73.2616Z" fill="#698DD3"/>
</g>
<defs>
<clipPath id="clip0_1162_2303">
<rect width="375" height="289" fill="white"/>
</clipPath>
</defs>
</svg>
